<svg width="20" height="22" viewBox="0 0 20 22" fill="none" xmlns="http://www.w3.org/2000/svg">
<path d="M14.3588 0C17.7501 0 20 2.65832 20 6.48249V15.5175C20 19.3417 17.7501 22 14.3588 22H5.6412C2.24992 22 0 19.3417 0 15.5175V6.48249C0 2.66189 2.25586 0 5.6412 0H14.3588ZM14.3588 1.53488H5.6412C3.04923 1.53488 1.39535 3.48644 1.39535 6.48249V15.5175C1.39535 18.5175 3.04372 20.4651 5.6412 20.4651H14.3588C16.9563 20.4651 18.6047 18.5175 18.6047 15.5175V6.48249C18.6047 3.48246 16.9563 1.53488 14.3588 1.53488ZM10 6.47445C10.3532 6.47445 10.6451 6.76317 10.6913 7.13776L10.6977 7.2419L10.697 10.2223L13.4109 10.2228C13.7962 10.2228 14.1085 10.5664 14.1085 10.9903C14.1085 11.3788 13.8461 11.6999 13.5055 11.7507L13.4109 11.7577L10.697 11.7568L10.6977 14.7386C10.6977 15.1625 10.3853 15.5061 10 15.5061C9.64679 15.5061 9.35489 15.2174 9.30869 14.8428L9.30233 14.7386L9.302 11.7568L6.58915 11.7577C6.20383 11.7577 5.89147 11.4141 5.89147 10.9903C5.89147 10.6017 6.15394 10.2806 6.49448 10.2298L6.58915 10.2228L9.302 10.2223L9.30233 7.2419C9.30233 6.81805 9.61469 6.47445 10 6.47445Z" fill="#666666"/>
</svg>
