<svg width="22" height="23" viewBox="0 0 22 23" fill="none" xmlns="http://www.w3.org/2000/svg">
<path d="M8.76886 14.418L9.10154 14.4196C14.0445 14.4672 16.8531 15.5948 16.8531 18.617C16.8531 21.568 14.1786 22.6934 9.42929 22.7857L8.76886 22.792C3.61945 22.792 0.68457 21.6824 0.68457 18.593C0.68457 15.5071 3.60648 14.418 8.76886 14.418ZM8.76886 16.1295L8.42328 16.1314C4.33144 16.175 2.22404 17.0034 2.22404 18.593C2.22404 20.2363 4.45683 21.0805 8.76886 21.0805C13.0864 21.0805 15.3137 20.25 15.3137 18.617C15.3137 16.9737 13.0809 16.1295 8.76886 16.1295ZM18.341 6.95901C18.7307 6.95901 19.0527 7.28095 19.1037 7.69865L19.1107 7.81478L19.11 9.24654L20.4407 9.24665C20.8659 9.24665 21.2105 9.62979 21.2105 10.1024C21.2105 10.5357 20.9209 10.8937 20.5452 10.9504L20.4407 10.9582L19.11 10.9581L19.1107 12.3903C19.1107 12.8629 18.7661 13.2461 18.341 13.2461C17.9513 13.2461 17.6293 12.9241 17.5783 12.5064L17.5713 12.3903L17.5705 10.9581L16.2431 10.9582C15.818 10.9582 15.4734 10.575 15.4734 10.1024C15.4734 9.66918 15.7629 9.31113 16.1387 9.25446L16.2431 9.24665L17.5705 9.24654L17.5713 7.81478C17.5713 7.34215 17.9159 6.95901 18.341 6.95901ZM8.76886 0.205048C11.7967 0.205048 14.2268 2.90675 14.2268 6.27302C14.2268 9.63852 11.7964 12.341 8.76886 12.341C5.74203 12.341 3.31091 9.63815 3.31091 6.27302C3.31091 2.90712 5.74171 0.205048 8.76886 0.205048ZM8.76886 1.91659C6.59188 1.91659 4.85039 3.85243 4.85039 6.27302C4.85039 8.69289 6.59226 10.6295 8.76886 10.6295C10.9461 10.6295 12.6873 8.69332 12.6873 6.27302C12.6873 3.85201 10.9465 1.91659 8.76886 1.91659Z" fill="#666666"/>
</svg>
