<svg width="23" height="26" viewBox="0 0 23 26" fill="none" xmlns="http://www.w3.org/2000/svg">
<path fill-rule="evenodd" clip-rule="evenodd" d="M9.04499 22.457C9.64899 23.1301 10.425 23.5 11.23 23.5H11.231C12.04 23.5 12.819 23.1301 13.425 22.4558C13.749 22.0976 14.302 22.0685 14.66 22.3916C15.02 22.7148 15.049 23.269 14.726 23.6271C13.783 24.6736 12.543 25.25 11.231 25.25H11.229C9.92102 25.2488 8.68303 24.6725 7.74403 23.626C7.42103 23.2678 7.45001 22.7136 7.81001 22.3916C8.16901 22.0673 8.72199 22.0965 9.04499 22.457ZM11.288 0.166626C16.474 0.166626 19.958 4.20563 19.958 7.97753C19.958 9.91763 20.451 10.7401 20.975 11.6128C21.493 12.4738 22.08 13.4515 22.08 15.2995C21.673 20.021 16.744 20.406 11.288 20.406C5.83304 20.406 0.903011 20.021 0.500011 15.3741C0.497011 13.4515 1.08302 12.4738 1.60102 11.6128L1.78401 11.305C2.23501 10.5311 2.61903 9.68943 2.61903 7.97753C2.61903 4.20563 6.10204 0.166626 11.288 0.166626ZM11.288 1.91663C7.21104 1.91663 4.36903 5.11103 4.36903 7.97753C4.36903 10.403 3.69602 11.5241 3.10102 12.5135C2.62302 13.308 2.24702 13.9356 2.24702 15.2995C2.44102 17.4998 3.89404 18.656 11.288 18.656C18.642 18.656 20.14 17.4485 20.333 15.2236C20.33 13.9356 19.953 13.308 19.476 12.5135C18.881 11.5241 18.208 10.403 18.208 7.97753C18.208 5.11103 15.366 1.91663 11.288 1.91663Z" fill="black" fill-opacity="0.6"/>
</svg>
