<svg width="18" height="24" viewBox="0 0 18 24" fill="none" xmlns="http://www.w3.org/2000/svg">
<path d="M12.0116 0.974365C15.1547 0.974365 17.1579 2.61177 17.1579 5.83246V21.8904C17.1579 22.3955 16.9818 22.88 16.6685 23.2372C16.3551 23.5943 15.9302 23.7949 15.4755 23.7949C15.2043 23.79 14.9377 23.714 14.6807 23.5634L8.92065 19.9879L3.18398 23.5709C2.49305 23.9802 1.65583 23.7914 1.13124 23.1074L1.03062 22.9641L0.934511 22.7878C0.809085 22.5148 0.741417 22.2123 0.736816 21.8904V6.03406C0.736816 2.68509 2.6962 0.974365 5.88311 0.974365H12.0116ZM12.0116 2.62628H5.88311C3.425 2.62628 2.18603 3.70802 2.18603 6.03406L2.18592 21.8767C2.18666 21.9271 2.19773 21.9766 2.18569 21.9575L2.22414 22.0284C2.29038 22.1313 2.41469 22.1649 2.50169 22.1136L8.23593 18.5328C8.66333 18.2696 9.1783 18.2696 9.60778 18.5341L15.358 22.1031C15.4015 22.1286 15.4496 22.1423 15.487 22.1431C15.5458 22.1431 15.6022 22.1165 15.6437 22.0691C15.6853 22.0217 15.7087 21.9574 15.7087 21.8904V5.83246C15.7087 3.66477 14.4382 2.62628 12.0116 2.62628ZM12.4449 8.1818C12.8451 8.1818 13.1695 8.5516 13.1695 9.00776C13.1695 9.42591 12.8969 9.77149 12.5432 9.82618L12.4449 9.83372H5.39672C4.99654 9.83372 4.67212 9.46393 4.67212 9.00776C4.67212 8.58961 4.94472 8.24404 5.2984 8.18934L5.39672 8.1818H12.4449Z" fill="#666666"/>
</svg>
