<svg width="299" height="390" viewBox="0 0 299 390" fill="none" xmlns="http://www.w3.org/2000/svg">
<path d="M21.0406 178.434C19.1699 178.829 17.8837 180.552 18.0365 182.458L22.8585 242.59C22.993 244.267 24.2685 245.629 25.9334 245.873C28.2186 246.207 30.2257 244.339 30.0558 242.036L25.6187 181.875C25.4493 179.578 23.2936 177.958 21.0406 178.434Z" fill="#263238"/>
<path d="M19.3845 194.63C10.0943 190.957 16.0512 184.719 25.7657 187.049C29.1722 187.866 32.3405 189.581 34.8729 192.002L46.8319 203.432C49.0578 205.56 49.2505 209.05 47.2724 211.409C44.9796 214.144 40.7919 214.203 38.4238 211.533L28.8538 200.742C26.4187 197.996 23.1903 196.102 19.7666 194.78C19.6402 194.731 19.5128 194.681 19.3845 194.63Z" fill="#BA7E6D"/>
<path d="M55.8601 222.292C55.8237 222.232 55.8045 222.18 55.8045 222.11C55.8045 222.068 55.7977 222.01 55.7843 221.971L53.2771 214.564C51.6876 209.869 48.2517 206.025 43.7633 203.92L33.7002 199.202C33.0702 198.907 32.3148 199.016 31.8516 199.535C31.0369 200.449 29.5201 200.553 28.695 199.649C26.8743 197.655 24.7887 195.913 22.4933 194.475L22.1864 194.285C19.9678 192.91 17.5081 191.358 14.9912 192.051C14.916 192.071 14.841 192.094 14.7664 192.117C13.4319 192.538 12.2754 193.392 11.4794 194.542C10.6834 195.693 10.293 197.076 10.3698 198.474C10.396 198.95 10.4759 199.418 10.6062 199.871C10.981 201.173 10.585 202.853 9.79018 203.951C9.2513 204.695 8.92402 205.572 8.84307 206.487C8.76213 207.402 8.93054 208.322 9.33044 209.15C9.90706 210.343 9.95799 212.058 9.28352 213.198C9.25213 213.252 9.22145 213.305 9.1915 213.359C8.71661 214.215 8.43459 215.164 8.36517 216.141C8.29576 217.117 8.44064 218.097 8.78967 219.012C8.82218 219.097 8.85639 219.181 8.89227 219.265C9.46019 220.589 9.40409 222.284 9.03836 223.678C8.81242 224.538 8.83747 225.446 9.11058 226.293C9.68753 228.019 10.6656 229.584 11.9644 230.859C13.9976 233.135 16.2832 235.172 18.7772 236.931C20.4256 238.198 22.9507 238.563 24.3845 237.058C25.2751 236.123 26.9873 235.289 28.0345 236.044L35.2637 241.259C36.0876 241.853 36.7479 242.647 37.183 243.565L39.6523 248.775C43.1711 256.2 52.3449 258.943 59.3622 254.669C65.8893 250.694 67.9599 242.181 63.9878 235.652L55.8601 222.292Z" fill="#BA7E6D"/>
<path d="M38.849 226.991C39.1562 227.191 39.0917 227.29 38.7906 227.082C38.2657 226.807 37.7658 226.486 37.2969 226.123C35.5731 224.76 34.1855 223.019 33.2408 221.034C31.7825 218.077 31.3551 214.717 32.0264 211.489C32.2519 210.584 32.5276 209.692 32.8522 208.818C33.0305 208.416 33.1166 207.979 33.104 207.54C33.0789 206.668 32.5155 205.916 31.8362 205.369C31.4337 205.045 30.9968 204.763 30.5326 204.531C29.6351 203.948 28.8184 203.25 28.1038 202.454C27.3968 201.66 26.8004 200.773 26.3308 199.819C25.8693 198.884 25.5414 197.936 25.0435 197.135C24.5888 196.347 23.8706 195.745 23.0155 195.435C22.1775 195.119 21.2424 194.937 20.3802 194.67C17.2253 193.91 14.2342 192.585 11.5515 190.759C10.6137 190.165 9.82139 189.367 9.23289 188.426C8.64439 187.484 8.27471 186.422 8.15112 185.319C8.15112 185.226 8.15112 185.135 8.15112 185.047C8.15112 184.541 8.20816 184.038 8.32114 183.546C8.34507 183.398 8.47312 183.423 8.44259 183.57L8.34543 184.299C8.34543 184.962 8.3752 185.63 8.5658 186.265C8.77377 186.958 9.08426 187.617 9.48852 188.222C10.0779 189.102 10.8524 189.844 11.7579 190.395C14.4284 192.127 17.3784 193.384 20.4774 194.111C21.3517 194.366 22.2504 194.524 23.1855 194.876C24.1675 195.234 24.9956 195.921 25.5293 196.819C26.0758 197.694 26.4036 198.665 26.8408 199.539C27.2939 200.439 27.8613 201.275 28.5289 202.029C29.1899 202.787 29.9496 203.453 30.7877 204.008C31.2482 204.241 31.6827 204.518 32.0851 204.836C32.9107 205.489 33.5822 206.403 33.6281 207.455C33.6512 207.984 33.5562 208.512 33.3501 209C33.0191 209.857 32.7393 210.733 32.5121 211.623C31.834 214.724 32.1924 217.962 33.5322 220.84C34.4221 222.791 35.7228 224.527 37.3455 225.929C37.9891 226.425 38.5027 226.767 38.849 226.991Z" fill="#875149"/>
<path d="M26.0636 212.874C25.8216 212.672 26.0061 212.448 26.2497 212.648C26.2769 212.67 26.3039 212.693 26.3308 212.716C27.4253 213.505 28.406 214.44 29.2454 215.497C29.8315 216.245 30.2797 217.093 30.5691 217.998C30.8985 219.066 30.8985 220.209 30.5691 221.277C30.3976 221.88 30.1044 222.441 29.7075 222.925C29.3107 223.41 28.8186 223.808 28.2617 224.095C27.6388 224.345 26.9708 224.463 26.2998 224.442C25.6289 224.421 24.9696 224.262 24.3634 223.973C20.378 221.996 16.8401 219.223 13.9681 215.825C13.0833 214.811 12.2717 213.735 11.5393 212.606C11.0404 211.915 11.2258 211.786 11.7428 212.464C12.3136 213.213 13.1525 214.28 14.2717 215.521C17.1876 218.764 20.6845 221.433 24.582 223.39C25.1054 223.649 25.6772 223.796 26.2607 223.821C26.8442 223.846 27.4265 223.749 27.9702 223.536C28.4514 223.284 28.8781 222.94 29.2261 222.524C29.5741 222.107 29.8365 221.626 29.9983 221.107C30.2901 220.141 30.2901 219.11 29.9983 218.144C29.7352 217.271 29.3245 216.45 28.7839 215.715C27.9882 214.668 27.0755 213.714 26.0636 212.874Z" fill="#875149"/>
<path d="M27.8467 238.306C28.9469 238.094 29.7312 237.116 29.6984 235.996L29.6157 233.174C29.5788 231.918 28.1997 231.095 26.9428 231.118C25.9641 231.137 24.881 232.206 25.0267 233.174C25.1758 234.165 25.1987 235.174 25.092 236.178C24.9017 237.517 26.0859 238.645 27.4137 238.389L27.8467 238.306Z" fill="#263238"/>
<path d="M0.26962 143.798C-1.28482 123.153 4.04642 107.269 11.9886 104.743C13.0573 104.415 17.1741 102.411 18.2428 102.751C25.9907 105.18 31.6013 121.526 32.9614 139.706C34.1758 155.153 33.1193 170.066 27.7273 176.514C25.9057 178.712 21.7282 178.943 19.4329 179.222C10.4099 180.352 1.8362 164.492 0.26962 143.798Z" fill="#455A64"/>
<path d="M26.5173 110.423C23.3509 104.113 14.8899 103.425 11.141 109.407C6.56674 116.706 4.18089 129.03 5.20009 142.329C6.89234 164.513 14.8239 177.538 23.3987 177.623C24.2206 177.631 25.0373 177.456 25.7963 177.141C27.2107 176.553 28.3511 175.457 29.1246 174.135C33.338 166.933 34.0736 153.327 33.01 139.256C32.1406 127.838 29.9598 117.283 26.5173 110.423Z" fill="white"/>
<path d="M32.4635 140.592C33.0541 148.093 38.2257 150.092 37.9933 142.572C37.9558 141.36 37.8901 140.132 37.7947 138.892C36.2403 118.247 27.2416 101.622 18.2185 102.751C17.9359 102.751 18.2091 103.656 18.4642 103.777C25.7524 107.249 31.156 123.174 32.4635 140.592Z" fill="#263238"/>
<path d="M22.7343 142.317C23.7711 138.845 24.138 138.947 23.224 142.454C22.6683 144.586 21.9595 147.207 21.1696 150.028C19.1901 157.096 17.4535 162.804 17.2835 162.755C17.1134 162.707 18.5829 156.938 20.5624 149.858C21.3533 147.029 22.1054 144.423 22.7343 142.317Z" fill="#263238"/>
<path d="M23.4148 131.134C24.5235 127.407 24.8967 127.511 23.912 131.272C23.3726 133.332 22.7017 135.811 21.9589 138.467C19.9795 145.547 18.2429 151.23 18.0728 151.182C17.9028 151.133 19.3723 145.365 21.3517 138.297C22.0962 135.639 22.808 133.173 23.4148 131.134Z" fill="#263238"/>
<path d="M249.346 83.4293C244.235 65.7114 226.176 55.743 208.008 58.9006L123.348 73.6149C123.109 73.6564 122.951 73.8864 122.999 74.124C123.31 75.6809 123.63 77.2208 123.95 78.7514C123.959 78.7907 123.902 78.8074 123.888 78.7701C123.873 78.7326 123.817 78.7491 123.825 78.7885C128.531 100.388 133.064 123.45 124.953 143.968C122.257 150.781 118.152 157.327 118.176 164.686C118.176 168.135 119.136 171.511 119.318 174.96C119.5 178.409 118.711 182.246 116.027 184.359C113.137 186.679 108.279 187.068 107.21 190.614C106.482 193.042 108.121 195.532 109.821 197.439C113.25 201.278 117.214 204.59 121.583 207.276C124.449 209.038 126.486 211.883 127.704 215.019C129.427 219.455 134.779 220.572 139.085 218.547L153.707 211.674C154.045 211.515 154.232 211.148 154.162 210.781L153.843 209.101C153.708 208.391 155.415 207.636 155.977 208.09C157.299 209.157 158.851 209.901 160.511 210.263C164.749 211.259 169.169 210.263 173.395 209.194C197.874 203.025 221.649 194.341 244.341 183.279C253.851 178.639 263.163 172.824 262.797 162.249C261.93 137.148 256.634 108.7 249.346 83.4293Z" fill="#263238"/>
<path d="M236.01 46.9129C227.934 30.0327 219.604 12.4602 202.493 4.87016C187.252 -1.88194 172.06 -0.995426 156.09 3.76505C148.221 6.10885 140.169 12.0473 134.231 17.7186C126.094 25.4908 124.831 37.4162 122.755 48.4795C119.442 66.0949 123.802 86.506 129.8 97.1063C132.335 101.586 137.232 103.75 142.235 104.958L208.88 121.056C221.309 124.058 235.469 121.747 243.502 111.799C247.793 106.484 250.292 100.512 250.195 91.3966C250.037 79.8233 241.074 57.3932 236.01 46.9129Z" fill="#263238"/>
<path d="M204.897 21.7018L151.612 19.6129C149.758 19.5402 147.882 19.535 146.082 19.985C130.684 23.8346 124.676 45.631 127.054 62.0079C129.871 81.2563 134.073 104.658 139.331 118.356C145.58 134.672 156.061 140.978 163.572 143.408C168.743 145.08 173.395 148.474 174.622 153.768L177.406 167.024C178.217 170.884 179.451 174.738 181.974 177.769C190.721 188.276 203.507 187.682 218.599 180.77C232.435 174.433 238.417 158.52 235.805 143.527L216.021 29.9841C215.539 27.4622 214.129 25.2126 212.07 23.6793C210.011 22.146 207.451 21.4404 204.897 21.7018Z" fill="#BA7E6D"/>
<path d="M135.299 76.0586C135.846 76.4351 138.19 73.7998 142.124 72.9862C146.059 72.1725 149.411 73.5205 149.69 72.9862C149.848 72.7312 149.204 71.9661 147.759 71.3103C145.806 70.4913 143.647 70.2962 141.578 70.7517C139.529 71.1752 137.669 72.2433 136.271 73.7998C135.214 74.8442 135.032 75.8279 135.299 76.0586Z" fill="#263238"/>
<path d="M173.48 66.817C174.039 67.2056 176.371 64.5582 180.305 63.7446C184.24 62.9309 187.592 64.2789 187.871 63.7446C188.029 63.4895 187.398 62.7245 185.94 62.0687C183.985 61.2551 181.828 61.0601 179.759 61.5101C177.712 61.9391 175.854 63.0064 174.452 64.5582C173.444 65.6998 173.213 66.647 173.48 66.817Z" fill="#263238"/>
<path d="M165.38 97.8087C165.38 97.5779 162.818 97.6751 158.738 98.003C157.061 98.1826 155.956 96.6231 156.256 94.9637C156.294 94.7563 156.343 94.5505 156.406 94.3476C156.843 91.7083 157.296 88.9476 157.766 86.0654C159.588 74.3099 160.681 64.7161 160.195 64.6432C159.709 64.5704 157.851 74.0549 156.029 85.8225C155.6 88.7128 155.196 91.4776 154.815 94.1169C154.545 95.0869 154.527 96.1034 154.755 97.0716C154.932 97.8268 155.305 98.573 155.979 98.9579C156.318 99.1515 156.697 99.2652 157.086 99.2903C157.676 99.3235 158.267 99.2827 158.847 99.1688C162.927 98.5373 165.405 98.0394 165.38 97.8087Z" fill="#263238"/>
<path d="M173.428 148.775C172.927 146.684 174.272 144.606 176.358 144.083C179.244 143.36 182.077 142.465 184.842 141.407C194.852 137.575 200.186 142.456 190.628 147.307C187.006 149.146 182.683 150.651 177.534 151.551C175.652 151.88 173.874 150.634 173.428 148.775Z" fill="#875149"/>
<path d="M179.433 100.596C179.176 98.6833 178.055 98.9623 177.746 100.867C177.496 102.408 176.947 104.381 175.46 106.237C172.424 110.026 167.773 110.487 167.858 111.094C167.858 111.374 169.072 111.714 170.979 111.374C173.493 110.891 175.758 109.542 177.379 107.56C178.926 105.653 179.67 103.218 179.455 100.772C179.448 100.712 179.441 100.653 179.433 100.596Z" fill="#263238"/>
<path d="M169.084 54.8186C169.631 55.8387 173.529 54.7336 178.277 54.5879C183.026 54.4422 186.997 55.1344 187.47 54.0657C187.677 53.5678 186.863 52.6448 185.187 51.8312C182.962 50.8535 180.543 50.3967 178.114 50.4957C175.686 50.5946 173.312 51.2466 171.173 52.4019C169.57 53.3492 168.829 54.3328 169.084 54.8186Z" fill="#263238"/>
<path d="M133.393 67.3756C134.474 67.9221 136.975 65.8576 140.388 64.4003C143.8 62.943 146.982 62.348 147.286 61.1821C147.407 60.6357 146.593 59.9677 144.99 59.7006C142.843 59.4332 140.663 59.774 138.7 60.6842C136.734 61.5342 135.05 62.9238 133.842 64.6918C132.944 66.0641 132.895 67.0963 133.393 67.3756Z" fill="#263238"/>
<path d="M147.553 16.3462C148.798 28.1814 153.277 39.4454 160.498 48.9045C162.406 51.6191 164.859 53.9063 167.7 55.6201C169.127 56.4612 170.732 56.9564 172.385 57.0661C174.617 57.2141 175.123 54.526 173.569 52.9171C173.382 52.7231 173.196 52.5274 173.013 52.3298C170.418 49.5307 173.13 47.8882 175.848 50.5684C177.82 52.5138 179.92 54.3213 182.2 55.9237C189.411 60.9928 198.814 63.7417 207.118 61.0858C207.401 60.9954 207.548 60.6873 207.448 60.4079C207.231 59.7994 208.373 59.2039 208.802 59.6876C210.58 61.694 212.68 63.369 215.159 64.3517C222.819 67.3891 225.003 56.9046 223.964 48.7297C222.626 38.1998 223.174 27.0724 217.029 18.6293C210.957 10.2864 199.954 7.1289 189.668 6.48527C175.104 5.5869 160.563 8.58395 147.541 15.1683" fill="#263238"/>
<path d="M148.894 16.8747C148.886 16.8104 148.792 16.8118 148.792 16.8767C148.792 16.9051 148.815 16.9292 148.843 16.9292C148.874 16.9292 148.898 16.9053 148.894 16.8747Z" fill="#263238"/>
<path d="M148.885 18.8449C148.832 17.7369 148.018 16.8065 146.921 16.6378C140.91 15.2048 136.635 12.9946 130.163 22.3455C126.491 28.079 123.971 34.4723 122.743 41.1688C121.528 47.2408 120.192 53.8229 120.739 59.9799C120.848 61.5381 121.005 63.0913 121.208 64.6373C122.268 72.7084 130.517 73.388 130.733 65.2505C130.759 64.287 130.767 63.3204 130.768 62.3525C130.773 59.4587 133.51 59.4671 134.644 62.1294C135.073 63.4296 135.929 64.5465 137.073 65.299C137.655 65.644 138.35 65.7456 139.007 65.582C140.207 65.283 140.187 63.7642 139.641 62.6546C137.319 57.9343 136.202 52.7005 136.405 47.423C136.541 43.961 141.481 43.898 142.548 47.1944C143.781 51.0059 145.278 54.7345 147.031 58.3526C147.547 59.6915 148.431 60.8575 149.581 61.7165C151.403 62.8338 153.771 62.2873 155.738 61.4737C158.214 60.4496 159.855 56.5344 158.596 54.169C152.797 43.2732 149.473 31.2106 148.885 18.8449Z" fill="#263238"/>
<path d="M167.717 177.138C171.503 162.504 185.061 152.553 200.157 153.328C226.046 154.659 239.566 184.728 223.38 204.977L211.273 220.123C207.55 224.781 202.808 228.524 197.411 231.062L189.731 234.675C184.989 236.906 179.63 237.458 174.533 236.24L171.953 235.624C165.668 234.122 160.63 229.433 158.681 223.271C157.639 219.976 157.545 216.455 158.41 213.109L167.717 177.138Z" fill="#BA7E6D"/>
<path d="M51.3524 250.85C45.6525 256.208 44.1673 264.695 47.7816 271.634C57.4941 290.28 75.831 325.14 79.8132 330.27C92.7587 346.944 122.317 341.637 126.495 332.493C131.271 322.144 142.909 295.932 150.361 279.101C154.634 269.45 154.797 258.48 150.829 248.699L149.35 245.055L146.287 238.728C138.272 222.171 114.058 224.227 108.95 241.899L107.549 246.747C103.601 260.404 85.8664 263.88 77.0555 252.725C70.7077 244.688 58.8138 243.835 51.3524 250.85Z" fill="#4D47C3" fill-opacity="0.17"/>
<path d="M312.905 300.365C310.662 295.578 309.418 290.405 309.222 285.122C308.4 262.955 305.878 201.637 302.815 191.573C299.062 179.247 294.472 172.458 285.194 166.459C273.553 158.939 254.531 164.947 245.39 175.363C235.096 187.092 222.31 201.916 213.908 212.558C197.829 232.923 176.917 234.004 172.618 228.637C168.319 223.269 165.113 212.327 168.866 195.022C171.747 181.733 173.347 163.48 173.934 155.724C174.082 153.771 172.416 152.193 170.469 152.408C149.265 154.764 130.952 168.949 124.26 189.193C124.005 189.97 123.75 190.759 123.52 191.622C115.99 217.403 145.525 254.467 145.525 252.84C145.598 260.539 146.108 267.91 147.419 273.169C151.706 290.341 189.231 319.122 191.381 327.514C192.215 330.771 192.993 340.855 193.632 351.976C194.838 372.951 211.948 389.638 232.958 389.653C252.075 389.667 273.886 389.665 286.59 389.606C288.594 389.596 290.823 389.588 293.218 389.581C321.816 389.501 340.759 359.813 328.625 333.916L312.905 300.365Z" fill="#F3F2FF"/>
<g opacity="0.3">
<path opacity="0.3" d="M150.917 279.545C143.169 274.396 138.943 265.13 137.753 255.912C136.562 246.695 138.032 237.356 139.489 228.163C140.142 224.038 145.034 224.55 144.689 228.712C144.415 232.005 144.127 235.335 143.873 238.753C142.853 252.5 143.363 267.194 150.905 278.731" fill="black"/>
</g>
<path d="M120.144 306.723C120.01 306.832 107.781 291.737 92.8438 273.011C77.9066 254.285 65.884 239.008 66.0176 238.91C66.1512 238.813 78.3802 253.896 93.3296 272.622C108.279 291.348 120.289 306.614 120.144 306.723Z" fill="#263238"/>
<g opacity="0.3">
<path opacity="0.3" d="M223.927 201.98C225.54 204.401 227.571 206.515 229.926 208.222C232.355 209.777 235.646 210.384 238.184 208.975C241.22 207.299 242.228 203.511 243.187 200.171C244.816 194.55 247.079 189.17 249.914 184.126C252.302 179.877 246.522 172.035 242.544 174.851C234.359 180.643 227.388 188.658 224.789 198.337" fill="black"/>
</g>
<path d="M82.0474 268.113C82.6295 267.58 82.7904 267.744 82.2178 268.287C81.647 268.931 80.7848 269.805 79.6918 270.874C76.8319 273.632 73.7978 276.204 70.6081 278.573C67.4137 280.94 64.0668 283.094 60.5892 285.022C59.2534 285.762 58.1604 286.333 57.3832 286.685C56.8077 287.01 56.7082 286.821 57.2755 286.483C58.0017 286.05 59.0594 285.429 60.3706 284.645C62.9694 283.091 66.4426 280.82 70.2316 278.063C74.0205 275.306 77.1294 272.586 79.3882 270.546C80.5183 269.525 81.4205 268.687 82.0474 268.113Z" fill="white"/>
<path d="M339.772 361.407C339.891 361.405 339.909 361.539 339.794 361.571C339.786 361.573 339.777 361.576 339.769 361.578L338.737 361.918L334.766 363.132C333.029 363.691 330.916 364.347 328.427 365.015C325.937 365.682 323.132 366.545 319.926 367.31C316.72 368.075 313.344 368.986 309.615 369.799C305.887 370.613 301.904 371.451 297.702 372.301C289.274 373.868 279.947 375.337 270.123 376.466C260.298 377.596 250.862 378.154 242.289 378.482C238.002 378.579 233.934 378.713 230.145 378.664C226.356 378.616 222.785 378.604 219.543 378.519C216.3 378.434 213.374 378.264 210.799 378.142C208.225 378.021 206.014 377.851 204.205 377.693L200.052 377.341L198.971 377.231C198.969 377.231 198.966 377.231 198.964 377.231C198.896 377.231 198.902 377.171 198.971 377.171H200.052L204.217 377.401C206.027 377.523 208.237 377.656 210.811 377.729C213.386 377.802 216.313 377.996 219.555 378.021C222.798 378.045 226.331 378.154 230.145 378.094C233.958 378.033 238.014 377.96 242.289 377.851C250.79 377.499 260.238 376.855 270.062 375.786C279.887 374.718 289.177 373.212 297.605 371.669C301.807 370.844 305.802 370.103 309.506 369.241C313.21 368.378 316.683 367.613 319.829 366.812C322.974 366.01 325.791 365.27 328.329 364.614C330.867 363.958 332.956 363.399 334.693 362.841L338.7 361.687L339.743 361.412C339.752 361.409 339.762 361.408 339.772 361.407Z" fill="white"/>
<path d="M327.285 329.117C327.285 329.287 315.032 330.72 299.876 332.311C284.72 333.901 272.442 335.055 272.442 334.873C272.442 334.691 284.696 333.27 299.852 331.679C315.007 330.088 327.261 328.934 327.285 329.117Z" fill="white"/>
<path d="M303.019 294.922C306.543 294.079 306.633 294.436 303.141 295.404C300.803 296.053 297.838 296.844 294.581 297.676C286.882 299.643 280.688 301.1 280.64 300.93C280.591 300.76 286.712 299.024 294.423 297.056C297.678 296.226 300.658 295.487 303.019 294.922Z" fill="white"/>
<g opacity="0.3">
<path opacity="0.3" d="M237.993 360.237C227.32 363.053 227.807 379.333 238.779 378.13C254.068 376.454 269.552 369.253 277.446 356.04C283.299 346.24 284.38 334.387 285.303 323.008C286.25 311.463 270.031 307.942 266.103 318.84L260.586 334.142C260.266 335.031 259.842 335.879 259.324 336.67L247.449 354.786C245.941 357.087 243.634 358.748 240.975 359.45L237.993 360.237Z" fill="black"/>
</g>
<path d="M137.333 354.369C137.232 345.812 143.368 338.452 151.804 337.011L196.482 329.383C212.872 326.585 225.68 313.732 228.398 297.329C233.804 264.703 242.159 214.387 242.495 213.068C242.993 211.113 249.065 176.964 266.249 174.037C283.433 171.11 299.099 177.947 300.107 194.536C300.92 207.797 281.672 303.08 269.54 347.211C266.043 359.902 252.138 371.135 238.536 371.39C214.431 371.844 176.405 371.681 154.537 371.53C145.076 371.464 137.445 363.83 137.333 354.369Z" fill="#4D47C3" fill-opacity="0.17"/>
<path d="M242.131 215.072C242.143 214.984 242.16 214.96 242.145 215.048C240.618 224.305 234.015 264.23 224.099 324.78C224.098 324.789 224.097 324.798 224.097 324.807C224.097 324.9 224.022 324.975 223.929 324.975C223.92 324.975 223.91 324.976 223.901 324.978L137.439 339.794C137.372 339.806 137.327 339.727 137.371 339.675C137.414 339.623 137.499 339.653 137.5 339.721C137.608 349.734 137.727 360.347 137.847 371.176C137.848 371.257 137.749 371.298 137.693 371.24C137.638 371.182 137.679 371.087 137.758 371.088L170.335 371.317C188.685 371.402 206.609 371.414 223.915 371.317L236.763 371.159C240.947 371.24 245.102 370.454 248.968 368.852C256.494 365.718 262.759 360.162 266.771 353.065L267.475 351.765L268.058 350.417C268.45 349.525 268.782 348.608 269.054 347.673C269.625 345.815 270.086 343.908 270.597 342.038C271.617 338.31 272.515 334.594 273.45 330.938C275.272 323.652 276.96 316.523 278.551 309.638C281.733 295.854 284.514 282.981 287.052 271.214C291.909 247.666 295.553 228.54 297.69 215.266C298.212 211.939 298.686 208.988 299.014 206.425C299.196 205.211 299.354 203.996 299.499 202.879C299.645 201.762 299.718 200.815 299.815 199.928C299.974 198.598 300.063 197.26 300.082 195.921C300.082 195.808 300.143 195.808 300.143 195.921C300.157 197.263 300.088 198.606 299.937 199.94C299.852 200.827 299.767 201.81 299.657 202.891C299.548 203.972 299.366 205.162 299.208 206.449C298.892 209.024 298.443 211.975 297.933 215.302C295.88 228.661 292.322 247.739 287.489 271.299C285.06 283.078 282.279 295.963 279.122 309.747C277.543 316.645 275.867 323.761 274.045 331.084C273.122 334.727 272.224 338.443 271.204 342.184C270.694 344.054 270.244 345.948 269.674 347.843C269.391 348.798 269.051 349.735 268.653 350.648L268.058 352.02L267.342 353.344C263.268 360.557 256.899 366.2 249.247 369.374C245.318 371.009 241.091 371.812 236.836 371.73L223.866 371.888C206.561 372.034 188.648 372.022 170.274 371.888L137.485 371.657C137.318 371.657 137.182 371.521 137.182 371.354V371.342C137.073 360.412 136.951 349.616 136.842 339.463V339.443C136.842 339.314 136.947 339.208 137.077 339.208C137.09 339.208 137.103 339.207 137.116 339.205L223.71 324.48C223.757 324.472 223.786 324.529 223.751 324.562C223.718 324.593 223.664 324.564 223.671 324.518C229.332 290.7 233.987 262.856 237.237 243.428C238.901 233.713 240.2 226.135 241.074 220.962L242.131 215.072Z" fill="#263238"/>
<path d="M285.546 255.669C285.862 255.705 285.835 255.932 285.521 255.876L280.069 255.196C275.466 254.637 269.139 253.981 262.035 253.617C254.931 253.253 248.579 253.204 243.94 253.265L238.439 253.362C238.118 253.389 238.105 253.153 238.427 253.143C239.726 253.034 241.596 252.937 243.916 252.852C248.555 252.682 254.979 252.645 262.059 253.022C269.139 253.398 275.527 254.115 280.117 254.783C282.413 255.123 284.271 255.426 285.546 255.669Z" fill="white"/>
<path d="M294.484 179.089C294.484 179.259 285.57 178.919 274.592 178.312C263.614 177.704 254.736 177.097 254.748 176.915C254.761 176.733 263.662 177.085 274.628 177.68C285.594 178.275 294.484 178.919 294.484 179.089Z" fill="white"/>
<g opacity="0.3">
<path opacity="0.3" d="M226.036 313.133C225.016 318.97 218.615 322.101 213.601 318.941C210.991 317.296 208.462 315.536 206.048 313.634C202.704 310.998 204.565 307.511 208.674 308.63C212.244 309.601 216.385 309.905 219.361 307.707C221.449 306.164 222.579 303.687 223.623 301.331C226.53 294.932 228.996 288.343 231.007 281.609C229.488 291.622 227.873 302.61 226.036 313.133Z" fill="black"/>
</g>
<g opacity="0.3">
<path opacity="0.3" d="M98.3816 278.597C108.6 285.108 117.408 293.602 124.285 303.578C124.734 304.233 125.183 305.108 124.734 305.764C124.285 306.419 122.888 306.31 122.111 305.764C114.023 299.692 104.648 287.414 98.3572 278.634" fill="black"/>
</g>
<path d="M250.464 87.9915C249.626 85.2958 248.549 82.6803 247.188 80.2069L230.477 49.835C227.129 43.7499 220.448 40.2776 213.544 41.0344C205.418 41.9252 198.881 48.6019 201.247 56.4265C205.528 70.5779 215.963 83.93 215.669 98.9017C215.511 107.038 212.135 115.041 213.24 123.117C214.248 130.731 219.106 137.41 220.174 144.976C221.449 153.975 217.308 162.719 214.041 171.183C211.882 176.777 210.111 183.013 210.437 188.885C210.762 194.733 216.316 199.312 221.936 200.961C230.437 203.454 238.623 199.882 242.491 191.913C245.205 186.324 248.146 180.072 252.9 174.792C253.789 173.804 254.688 172.83 255.596 171.86C256.562 170.829 258.011 169.379 259.785 167.901C269.262 160.006 282.575 155.848 278.285 144.283C275.958 138.012 271.569 129.724 263.796 118.83C258.475 111.433 253.721 98.4575 250.464 87.9915Z" fill="#263238"/>
<path d="M54.748 344.916C50.7719 345.562 50.4408 340.356 53.6706 337.949L65.4712 329.153C67.2857 327.855 69.5022 327.244 71.7254 327.429L79.9012 328.11C84.1374 328.463 88.2874 329.506 92.187 331.198L117.273 342.084C119.254 342.944 121.433 343.247 123.574 342.96C130.652 342.013 136.958 347.482 137.021 354.623L137.041 356.866C137.106 364.272 131.331 370.495 123.926 370.403C121.069 370.367 118.356 370.237 116.513 369.933C113.563 369.446 110.072 367.903 107.321 366.484C106.224 365.917 104.029 367.826 103.543 368.961C102.693 370.948 96.6298 373.929 95.1245 374.644C94.9 374.751 94.9848 374.737 94.749 374.816C90.8043 376.129 84.8624 373.678 81.1934 371.723C81.089 371.667 80.9855 371.609 80.8832 371.548C77.6308 369.62 75.0086 366.012 71.4735 364.671C67.6592 363.223 63.6827 360.768 64.8519 356.999C66.302 352.301 67.7834 348.767 67.9956 348.268C68.0134 348.226 68.0309 348.186 68.0497 348.145L70.8875 341.856C71.6576 340.149 70.6151 338.174 68.7718 337.847C67.9908 337.708 67.1918 337.896 66.5468 338.358C64.109 340.102 57.8386 344.414 54.748 344.916Z" fill="#BA7E6D"/>
<path d="M90.9239 351.755C91.224 351.771 91.1765 352.055 90.8767 352.034C90.8604 352.033 90.8441 352.033 90.8279 352.035C89.9227 352.119 89.0535 352.431 88.302 352.943C87.1704 353.691 86.2836 354.756 85.7518 356.004C85.1588 357.55 84.9545 359.218 85.1567 360.861C85.366 362.544 85.7195 364.206 86.2132 365.828C86.6261 367.346 87.0269 368.718 87.4276 369.848C88.1684 372.107 88.7999 373.491 88.7149 373.491C88.6299 373.491 88.472 373.212 88.1563 372.604C87.7227 371.761 87.3375 370.893 87.0026 370.006C86.5654 368.888 86.1282 367.516 85.6789 365.998C85.1326 364.352 84.7542 362.656 84.5495 360.934C84.329 359.171 84.5674 357.38 85.2417 355.736C85.8358 354.4 86.8283 353.281 88.0834 352.53C88.9219 352.012 89.8906 351.742 90.8766 351.753C90.8924 351.754 90.9081 351.754 90.9239 351.755Z" fill="#875149"/>
<path d="M98.6551 358.919C98.5276 358.485 98.8048 358.456 99.011 358.859C99.0459 358.927 99.0794 359.004 99.1102 359.088C99.3406 359.78 99.4274 360.511 99.3652 361.238C99.3259 361.976 99.0958 362.692 98.6973 363.314C98.3573 363.8 97.993 363.934 97.9565 363.861C97.9201 363.788 98.1144 363.545 98.3087 363.096C98.5492 362.486 98.6926 361.843 98.7337 361.189C98.7988 360.586 98.8046 359.978 98.7511 359.374C98.7407 359.256 98.6885 359.033 98.6551 358.919Z" fill="#875149"/>
</svg>
