<svg width="450" height="614" viewBox="0 0 450 614" fill="none" xmlns="http://www.w3.org/2000/svg">
<path fill-rule="evenodd" clip-rule="evenodd" d="M102.548 446.007L99.0473 433.084L93.8589 445.046C93.6742 445.434 93.4475 445.737 93.1789 445.956C92.927 446.159 92.608 446.26 92.2218 446.26C91.4663 446.26 90.9206 445.855 90.5848 445.046L86.3873 435.891L86.6809 446.007H83.4823V428.709C83.7006 427.832 84.2295 427.394 85.0691 427.394C85.4048 427.394 85.7155 427.486 86.0009 427.672C86.3031 427.857 86.5298 428.127 86.6809 428.481L92.3226 441.48L97.9639 428.481C98.2666 427.756 98.7786 427.394 99.5005 427.394C100.273 427.394 100.785 427.832 101.037 428.709L105.722 446.007H102.548ZM42.6393 446.091C41.3632 446.091 40.1795 445.855 39.0881 445.383C38.0135 444.894 37.0732 444.237 36.2673 443.411C35.4781 442.568 34.8569 441.573 34.4035 440.426C33.967 439.28 33.7487 438.041 33.7487 436.709C33.7487 435.36 33.967 434.129 34.4035 433.016C34.8569 431.904 35.4781 430.96 36.2673 430.184C37.0732 429.392 38.0135 428.785 39.0881 428.363C40.1795 427.925 41.3632 427.706 42.6393 427.706H52.5625V430.917H42.6393C41.8166 430.917 41.0526 431.069 40.3474 431.373C39.659 431.659 39.0629 432.064 38.5592 432.586C38.0555 433.109 37.6609 433.733 37.3755 434.458C37.09 435.183 36.9473 435.984 36.9473 436.86C36.9473 437.72 37.09 438.521 37.3755 439.263C37.6609 440.005 38.0555 440.646 38.5592 441.185C39.0629 441.708 39.659 442.121 40.3474 442.424C41.0526 442.728 41.8166 442.879 42.6393 442.879H50.4721V438.1H42.2111V435.394H53.6959V446.091H42.6393ZM56.3075 446.091V427.706H59.5061V446.091H56.3075ZM67.1526 445.383C68.244 445.855 69.4277 446.091 70.7038 446.091H81.7604V435.394H70.2756V438.1H78.5366V442.879H70.7038C69.8811 442.879 69.1171 442.728 68.4119 442.424C67.7235 442.121 67.1274 441.708 66.6237 441.185C66.12 440.646 65.7254 440.005 65.44 439.263C65.1546 438.521 65.0118 437.72 65.0118 436.86C65.0118 435.984 65.1546 435.183 65.44 434.458C65.7254 433.733 66.12 433.109 66.6237 432.586C67.1274 432.064 67.7235 431.659 68.4119 431.373C69.1171 431.069 69.8811 430.917 70.7038 430.917H80.627V427.706H70.7038C69.4277 427.706 68.244 427.925 67.1526 428.363C66.078 428.785 65.1378 429.392 64.3318 430.184C63.5426 430.96 62.9214 431.904 62.468 433.016C62.0315 434.129 61.8132 435.36 61.8132 436.709C61.8132 438.041 62.0315 439.28 62.468 440.426C62.9214 441.573 63.5426 442.568 64.3318 443.411C65.1378 444.237 66.078 444.894 67.1526 445.383ZM115.744 444.194C115.744 445.621 114.784 446.167 113.9 446.167H113.892C112.82 446.167 112.057 445.446 112.057 444.248C112.057 443.018 112.827 442.283 113.946 442.283C115.049 442.283 115.744 443.072 115.744 444.194ZM113.386 444.225C113.386 444.809 113.545 445.226 113.915 445.226H113.923C114.255 445.226 114.414 444.801 114.414 444.225C114.414 443.716 114.278 443.223 113.915 443.223C113.515 443.223 113.386 443.732 113.386 444.225ZM111.813 445.044C111.662 445.112 111.495 445.135 111.292 445.135C110.823 445.135 110.453 444.817 110.453 444.21C110.445 443.648 110.785 443.299 111.276 443.299C111.511 443.299 111.67 443.337 111.79 443.383L111.964 442.404C111.753 442.328 111.458 442.29 111.201 442.29C109.856 442.29 109.131 443.155 109.131 444.263C109.131 445.461 109.871 446.159 111.035 446.159C111.412 446.159 111.76 446.099 111.941 446.023L111.813 445.044ZM108.092 446.167C108.538 446.167 108.84 445.848 108.84 445.386C108.833 444.908 108.523 444.597 108.1 444.597C107.677 444.597 107.352 444.923 107.352 445.386C107.352 445.848 107.669 446.167 108.085 446.167H108.092ZM116.204 446.091H117.481V443.899C117.481 443.8 117.488 443.701 117.518 443.625C117.579 443.489 117.692 443.345 117.896 443.345C118.191 443.345 118.281 443.633 118.281 443.982V446.091H119.558V443.899C119.558 443.815 119.566 443.701 119.589 443.641C119.649 443.466 119.777 443.345 119.974 443.345C120.253 443.345 120.359 443.618 120.359 444.058V446.091H121.636V443.861C121.636 442.874 121.236 442.283 120.457 442.283C120.223 442.283 120.019 442.336 119.838 442.427C119.657 442.525 119.498 442.669 119.362 442.844H119.347C119.203 442.503 118.863 442.283 118.402 442.283C117.835 442.283 117.511 442.601 117.36 442.814H117.337L117.276 442.358H116.173C116.188 442.715 116.204 443.14 116.204 443.603V446.091ZM104.099 430.496H103.445V428.504H102.859V427.939H104.696V428.504H104.099V430.496ZM107.546 430.496H106.926L106.892 429.612C106.885 429.35 106.877 429.016 106.877 428.656H106.866C106.802 428.974 106.704 429.339 106.636 429.581L106.405 430.443H105.907L105.706 429.585C105.649 429.342 105.574 428.982 105.525 428.656H105.517C105.506 428.894 105.496 429.146 105.486 429.365V429.373L105.479 429.524L105.476 429.612L105.438 430.496H104.849L105.018 427.939H105.842L106.008 428.663C106.076 428.959 106.148 429.286 106.197 429.593H106.209C106.269 429.289 106.348 428.944 106.416 428.66L106.598 427.939H107.41L107.546 430.496Z" fill="#F63C38"/>
<path d="M150.618 22.4944H123.316C122.392 22.4944 121.636 23.2761 121.636 24.2315V27.3583C121.636 28.3138 122.392 29.0954 123.316 29.0954H150.534C151.458 29.0954 152.214 28.3138 152.214 27.3583V24.2315C152.298 23.2761 151.542 22.4944 150.618 22.4944ZM150.618 39.9524H123.316C122.392 39.9524 121.636 40.7341 121.636 41.6896V44.8164C121.636 45.7718 122.392 46.5535 123.316 46.5535H150.534C151.458 46.5535 152.214 45.7718 152.214 44.8164V41.6896C152.298 40.7341 151.542 39.9524 150.618 39.9524ZM138.689 48.7249H123.316C122.392 48.7249 121.636 49.5066 121.636 50.462V53.5888C121.636 54.5443 122.392 55.326 123.316 55.326H138.689C139.613 55.326 140.369 54.5443 140.369 53.5888V50.462C140.369 49.5066 139.613 48.7249 138.689 48.7249ZM152.298 31.2669H123.316C122.392 31.2669 121.636 32.0485 121.636 33.0039V36.1308C121.636 37.0862 122.392 37.8679 123.316 37.8679H152.298C153.222 37.8679 153.978 37.0862 153.978 36.1308V33.0039C153.978 32.0485 153.222 31.2669 152.298 31.2669Z" fill="#0BA4DB"/>
<path d="M365.288 6.97005V22.2526H361.033V20.0207C360.599 20.7962 359.969 21.4325 359.211 21.8602C358.427 22.29 357.551 22.5078 356.665 22.4935C354.832 22.4935 353.463 21.9607 352.556 20.895C351.649 19.8293 351.197 18.2216 351.199 16.072V6.97005H355.563V16.1629C355.563 18.0115 356.324 18.9358 357.848 18.9358C358.754 18.9358 359.487 18.6146 360.047 17.9721C360.608 17.3297 360.887 16.4857 360.886 15.4402V6.97005H365.288ZM381.972 0V22.2526H377.661V19.9919C377.214 20.7776 376.562 21.415 375.782 21.8299C374.931 22.2822 373.987 22.5101 373.032 22.4935C371.84 22.514 370.67 22.162 369.672 21.4829C368.666 20.7819 367.869 19.8 367.373 18.6494C366.823 17.4372 366.548 16.0458 366.548 14.475C366.548 12.9042 366.823 11.5228 367.373 10.3308C367.868 9.20046 368.66 8.23915 369.658 7.55795C370.666 6.89544 371.839 6.55563 373.031 6.58063C373.965 6.56867 374.888 6.79111 375.722 7.22915C376.499 7.62964 377.151 8.25113 377.603 9.02166V0H381.972ZM376.8 17.866C377.382 17.0933 377.672 15.9821 377.672 14.5325C377.672 13.1052 377.378 12.0051 376.79 11.2324C376.201 10.4596 375.377 10.0727 374.317 10.0717C373.235 10.0717 372.396 10.4536 371.799 11.2172C371.201 11.9809 370.903 13.0658 370.903 14.4719C370.903 15.9185 371.201 17.0387 371.799 17.8327C372.396 18.6267 373.235 19.0237 374.317 19.0237C375.39 19.0257 376.218 18.6398 376.8 17.866ZM398.656 6.97005V22.2526H394.344V19.9919C393.897 20.7781 393.244 21.4156 392.463 21.8299C391.613 22.281 390.669 22.5078 389.715 22.4905C388.524 22.5241 387.35 22.1881 386.343 21.5252C385.336 20.8623 384.541 19.9024 384.058 18.7676C383.508 17.5726 383.233 16.1912 383.233 14.6235C383.233 13.0557 383.508 11.6587 384.058 10.4323C384.551 9.27626 385.349 8.28919 386.358 7.58523C387.356 6.90884 388.525 6.55897 389.715 6.58063C390.673 6.56462 391.618 6.80349 392.463 7.27461C393.242 7.70607 393.893 8.35236 394.344 9.14288V6.97005H398.656ZM393.477 17.8797C394.058 17.116 394.349 16.0109 394.349 14.5644C394.349 13.1178 394.058 12.0067 393.477 11.2309C392.895 10.4561 392.065 10.0692 390.988 10.0702C389.91 10.0712 389.071 10.4738 388.47 11.2778C387.873 12.086 387.573 13.2017 387.572 14.625C387.571 16.0483 387.866 17.1382 388.455 17.8948C389.044 18.6474 389.888 19.0242 390.988 19.0252C392.067 19.0262 392.897 18.6449 393.477 17.8812V17.8797ZM350.31 22.4678H344.889L339.056 15.5387V22.4678H334.631V0H339.056V13.6446L344.624 7.02156H349.929L343.628 14.4462L350.31 22.4678ZM322.509 22.4754L314.017 12.293L318.654 22.4754H315.439L310.709 12.0945L312.675 22.4754H310.7L308.732 12.0794V22.4754H307.957V0H308.732V11.2127L310.728 0H312.697L310.693 11.2612L315.515 0H318.695L313.892 11.2203L322.613 0H327.597L318.575 11.6082L327.639 22.4754H322.509Z" fill="#41276D"/>
<g clip-path="url(#clip0)">
<path d="M1.04239 271.948L0.553417 274.576C0.48822 274.779 0.48822 274.947 0.48822 275.149C0.48822 275.722 0.814205 275.992 1.27058 275.992C1.85736 275.992 2.28114 275.587 2.44413 274.576L2.96571 271.948H3.48728L2.9983 274.576C2.77012 275.891 2.15074 276.43 1.23799 276.43C0.48822 276.43 -0.0333557 276.025 -0.0333557 275.116L-0.000757214 274.475L0.455622 271.914H1.04239V271.948ZM4.23705 276.43L4.62823 274.172C4.72603 273.801 4.72603 273.498 4.79122 273.229H5.2476L5.14981 273.835C5.41059 273.363 5.83437 273.128 6.29075 273.128C6.64934 273.128 7.04052 273.363 7.04052 274.004L7.00792 274.543L6.64934 276.362H6.09516L6.42115 274.543L6.45375 274.105C6.45375 273.801 6.32335 273.566 5.96477 273.566C5.60618 273.566 5.05201 274.004 4.92162 274.812L4.62823 276.362H4.23705V276.43ZM8.18147 276.43L8.76824 273.229H9.32241L8.73564 276.43H8.18147ZM8.86603 272.319C8.86603 272.15 9.06163 271.948 9.22462 271.948C9.42021 271.948 9.5506 272.083 9.5506 272.285C9.5506 272.521 9.42021 272.656 9.19202 272.656C8.99643 272.656 8.86603 272.521 8.86603 272.319ZM11.6043 272.386L11.4739 273.229H12.1911L12.0933 273.633H11.3761L11.1153 275.183C11.0501 275.385 11.0501 275.52 11.0501 275.722C11.0501 275.891 11.1479 275.992 11.3435 275.992H11.5717L11.5065 276.43L11.1153 276.463C10.659 276.463 10.4634 276.194 10.4634 275.857L10.496 275.25L10.8219 273.633H10.3656L10.4634 273.229H10.9197L11.0501 272.521L11.6043 272.386ZM15.0272 276.227C14.799 276.362 14.4078 276.463 14.0166 276.463C13.2016 276.463 12.8431 275.891 12.8431 275.183C12.8431 274.239 13.5276 273.128 14.5056 273.128C15.0923 273.128 15.4183 273.498 15.4183 273.936C15.4183 274.779 14.5056 275.014 13.3646 274.947C13.332 275.116 13.3646 275.385 13.4298 275.587C13.5602 275.857 13.7884 275.992 14.1144 275.992C14.473 275.992 14.7338 275.857 14.9294 275.756L15.0272 276.227ZM14.4078 273.566C13.9188 273.566 13.5602 274.071 13.4298 274.543C14.2448 274.543 14.8642 274.442 14.8642 273.936C14.8642 273.7 14.7012 273.566 14.4078 273.566ZM19.5257 271.712L18.8412 275.385C18.776 275.722 18.7108 276.093 18.7108 276.362H18.1892L18.287 275.756C18.0262 276.227 17.6024 276.463 17.2113 276.463C16.5919 276.463 16.2985 275.958 16.2985 275.284C16.2985 274.172 17.1135 273.128 18.1892 273.128C18.3848 273.128 18.613 273.161 18.7434 273.229L19.0042 271.712H19.5257ZM18.6456 273.7C18.5478 273.599 18.3848 273.566 18.1566 273.566C17.4394 273.566 16.8201 274.341 16.8201 275.183C16.8201 275.587 16.9831 275.992 17.4394 275.992C17.8306 275.992 18.3522 275.52 18.4826 274.812L18.6456 273.7ZM22.6878 272.016C22.9812 271.948 23.3072 271.914 23.6006 271.914C24.0569 271.914 24.3829 272.016 24.6111 272.218C24.8067 272.42 24.9371 272.656 24.9371 272.925C24.9371 273.498 24.4807 273.936 24.0243 274.071C24.4481 274.206 24.7415 274.543 24.7415 275.048C24.7415 275.52 24.5133 275.857 24.2525 276.093C23.9265 276.362 23.4376 276.463 22.8508 276.463L21.938 276.43L22.6878 272.016ZM22.5248 275.958L22.9812 275.992C23.6006 275.992 24.2199 275.722 24.2199 275.014C24.2199 274.475 23.7961 274.239 23.3072 274.239H22.8834L22.5248 275.958ZM22.916 273.835H23.3398C23.9265 273.835 24.4481 273.498 24.4481 272.993C24.4481 272.555 24.1221 272.386 23.6658 272.386L23.2094 272.42L22.916 273.835ZM27.8058 276.43L27.9036 275.621C27.5776 276.261 27.1212 276.497 26.6974 276.497C26.1758 276.497 25.8499 276.025 25.8499 275.486C25.8499 274.341 26.6322 273.229 27.9688 273.229C28.2621 273.229 28.6207 273.262 28.8163 273.363L28.4903 275.014C28.3925 275.587 28.3599 276.126 28.3599 276.463H27.8058V276.43ZM28.1643 273.599L27.8058 273.566C27.0234 273.566 26.3388 274.408 26.3388 275.284C26.3388 275.655 26.4692 275.992 26.893 275.992C27.3494 275.992 27.8384 275.385 27.9688 274.543L28.1643 273.599ZM29.6639 276.43L30.0877 274.172L30.2181 273.229H30.6744L30.5766 273.835C30.8374 273.363 31.2612 273.128 31.7176 273.128C32.0762 273.128 32.4999 273.363 32.4999 274.004L32.4347 274.543L32.0762 276.362H31.522L31.848 274.543L31.8806 274.105C31.8806 273.801 31.7502 273.566 31.3916 273.566C31.033 273.566 30.4788 274.004 30.3484 274.812L30.0877 276.362H29.6639V276.43ZM33.6735 276.43L34.5211 271.78H35.0426L34.4885 274.677C34.5863 274.576 34.7166 274.442 34.7492 274.341L35.8576 273.229H36.477L35.1404 274.543L36.0206 276.43H35.4338L34.7166 274.88L34.2929 275.25L34.0647 276.463H33.6735V276.43ZM38.9544 276.43L39.4434 273.633H39.0522L39.1174 273.229H39.5412L39.5738 273.026C39.6716 272.555 39.802 272.184 40.0954 271.914C40.2584 271.712 40.5518 271.611 40.8126 271.611C41.0408 271.611 41.1711 271.679 41.2363 271.712L41.0734 272.15C41.0082 272.083 40.9104 272.083 40.78 272.083C40.3562 272.083 40.128 272.521 40.0302 273.026V273.229H40.7148L40.617 273.633H39.965L39.4434 276.43H38.9544ZM44.1702 274.475C44.1702 275.486 43.4856 276.497 42.4425 276.497C41.6927 276.497 41.2689 275.891 41.2689 275.183C41.2689 274.172 41.9861 273.161 42.9967 273.161C43.8116 273.128 44.1702 273.801 44.1702 274.475ZM41.8231 275.149C41.8231 275.655 42.0839 276.025 42.5403 276.025C43.1923 276.025 43.6486 275.183 43.6486 274.475C43.6486 274.105 43.453 273.599 42.8989 273.599C42.2795 273.566 41.8231 274.408 41.8231 275.149ZM45.1482 276.43L45.5067 274.341C45.6045 273.936 45.6371 273.498 45.6697 273.229H46.1261L46.0609 273.936C46.2239 273.498 46.5825 273.161 47.0063 273.161H47.1367L47.0389 273.7H46.9085C46.4521 273.7 46.0609 274.239 45.8979 275.014L45.6371 276.43H45.1482ZM50.3639 275.014L49.6794 276.43H49.1252L51.3745 272.016H51.9939L52.6132 276.43H52.059L51.8635 275.014H50.3639ZM51.8309 274.543L51.6353 273.262C51.6027 273.026 51.6027 272.689 51.5375 272.454L51.1789 273.262L50.5595 274.543H51.8309ZM53.689 276.43L54.1779 273.633H53.7868L53.8846 273.229H54.2757L54.3409 273.026C54.4061 272.555 54.5691 272.184 54.8299 271.914C54.9929 271.712 55.2863 271.611 55.5471 271.611C55.7753 271.611 55.9057 271.679 55.9709 271.712L55.8405 272.15C55.7427 272.083 55.6449 272.083 55.5145 272.083C55.0907 272.083 54.8625 272.521 54.7973 273.026L54.7321 273.161H55.4167L55.3189 273.599H54.6343L54.1454 276.362H53.689V276.43ZM56.0035 276.43L56.362 274.341L56.5576 273.229H57.014L56.9162 273.936C57.1118 273.498 57.4704 273.161 57.8616 273.161H58.0246L57.9268 273.7H57.7964C57.34 273.7 56.9162 274.239 56.7858 275.014L56.525 276.43H56.0035ZM58.6113 276.43L59.1981 273.229H59.7523L59.1655 276.43H58.6113ZM59.2959 272.319C59.2959 272.15 59.4263 271.948 59.6545 271.948C59.8175 271.948 59.9805 272.083 59.9805 272.285C59.9805 272.521 59.8175 272.656 59.5893 272.656C59.4263 272.656 59.2959 272.521 59.2959 272.319ZM62.7514 276.261C62.5558 276.362 62.2298 276.463 61.8386 276.463C61.0236 276.463 60.6651 275.891 60.6651 275.25C60.6651 274.172 61.4148 273.161 62.5232 273.161C62.784 273.161 63.0773 273.262 63.1425 273.33L63.0121 273.734C62.8817 273.7 62.7514 273.599 62.5232 273.599C61.7082 273.599 61.1866 274.408 61.1866 275.149C61.1866 275.655 61.48 275.992 61.969 275.992C62.295 275.992 62.5232 275.891 62.6862 275.789L62.7514 276.261ZM65.8482 276.43L65.9134 275.621C65.62 276.261 65.1636 276.497 64.7399 276.497C64.1857 276.497 63.8923 276.025 63.8923 275.486C63.8923 274.341 64.6421 273.229 66.0112 273.229C66.3046 273.229 66.6632 273.262 66.8262 273.363L66.5328 275.014C66.435 275.587 66.3698 276.126 66.3698 276.463H65.8482V276.43ZM66.2068 273.599L65.8482 273.566C65.0658 273.566 64.3813 274.408 64.3813 275.284C64.3813 275.655 64.5117 275.992 64.9355 275.992C65.3918 275.992 65.8808 275.385 66.0112 274.543L66.2068 273.599ZM13.2342 253.079L11.2783 262.446C10.6916 264.468 9.6158 265.883 7.33391 265.984C5.378 265.984 4.59563 264.636 5.08461 261.806L6.81233 253.079H3.94366L1.95515 263.086C1.59657 266.928 3.78067 268.006 7.10572 267.905C10.2678 267.804 12.4519 266.321 13.6906 263.356L15.8747 253.079H13.2342ZM37.3897 257.796L38.5307 262.648H34.2929L37.3897 257.796ZM38.2699 253.079L28.6533 267.568H31.2612L33.0867 264.771H39.0848L39.6716 267.568H42.7685L39.3456 253.079H38.2699ZM47.6256 267.669H53.1348C58.0898 267.433 59.1655 265.108 57.5682 261.233L51.5375 249.069L47.6256 267.669ZM61.154 245.261C56.1991 245.497 55.1559 247.856 56.7532 251.697L62.7514 263.861L66.6632 245.261H61.154ZM19.6561 265.748L20.6667 260.862H21.8076C23.4702 260.862 24.8719 261.469 24.8719 263.086C24.8719 265.041 23.0138 265.849 20.9275 265.849L19.6561 265.748ZM21.8402 254.932H23.2094C24.7089 254.932 25.6217 255.303 25.6217 256.549C25.6217 258.032 24.2525 258.975 22.1988 258.975H21.0579L21.8402 254.932ZM19.6561 253.079L19.4279 253.112L16.5267 267.635H22.101C23.9917 267.635 25.0675 267.096 25.7847 266.658C26.9256 265.883 27.7406 264.636 28.034 263.12C28.3925 261.065 27.0234 259.986 25.3283 259.818C27.056 259.413 28.5229 258.099 28.6207 256.212C28.8489 253.079 25.4261 253.079 25.4261 253.079H19.6561Z" fill="#D71920"/>
</g>
<g clip-path="url(#clip1)">
<path d="M357.615 290.314V296.306H352.312V276.431H357.615V286.51H359.99L363.37 281.185H368.926L364.381 288.459L368.93 296.306H363.37L359.886 290.316L357.615 290.314Z" fill="#ED017F"/>
<path d="M385.246 292.024L385.194 285.511V284.751C384.993 282.469 382.821 280.805 380.346 280.996H373.432C373.149 280.969 372.864 280.969 372.582 280.996C372.007 281.047 371.448 281.205 370.938 281.46C370.428 281.715 369.976 282.062 369.608 282.481C369.241 282.901 368.965 283.384 368.796 283.904C368.627 284.424 368.569 284.97 368.625 285.511V292.785C368.827 295.067 370.999 296.731 373.424 296.541H381.249C383.68 296.351 385.447 294.306 385.246 292.024ZM379.992 291.787C379.983 291.922 379.943 292.054 379.875 292.174C379.807 292.294 379.712 292.398 379.596 292.48C379.481 292.561 379.348 292.618 379.207 292.646C379.065 292.674 378.919 292.673 378.779 292.643H374.84C374.234 292.595 373.88 292.117 373.931 291.549V285.657C373.959 285.392 374.096 285.149 374.314 284.979C374.532 284.81 374.812 284.729 375.093 284.753H379.032C379.591 284.8 379.993 285.323 379.941 285.894H379.993L379.992 291.787Z" fill="#ED017F"/>
<path d="M395.65 285.036C394.413 285.032 393.183 285.225 392.014 285.606V296.208H386.71V281.185H391.357L391.66 282.612C392.62 282.086 393.58 281.613 394.591 281.375C395.414 281.092 396.285 280.947 397.162 280.947H398.475C399.036 280.91 399.6 280.978 400.133 281.148C400.666 281.317 401.158 281.584 401.581 281.933C402.003 282.282 402.348 282.707 402.595 283.182C402.843 283.658 402.987 284.175 403.021 284.703V296.306H397.822V286.036C397.801 285.765 397.675 285.51 397.467 285.321C397.262 285.139 396.991 285.038 396.709 285.036H395.65Z" fill="#ED017F"/>
<path d="M420.098 297.112V281.185H408.128C406.961 281.305 405.891 281.85 405.145 282.703C404.399 283.555 404.037 284.649 404.137 285.749V291.93C404.213 292.994 404.734 293.987 405.586 294.691C406.438 295.395 407.552 295.752 408.683 295.685H409.744C411.512 295.685 413.229 295.447 414.896 295.115L414.795 296.541C414.793 296.806 414.685 297.06 414.492 297.254C414.282 297.428 414.014 297.529 413.734 297.539C411.764 297.539 408.834 297.444 404.995 297.159V300.819C408.531 301.152 412.017 301.39 415.553 301.39H416.112C418.484 301.2 420.25 299.298 420.098 297.112ZM414.896 291.597C413.694 291.789 412.478 291.886 411.259 291.887V291.838H410.501C410.365 291.836 410.231 291.808 410.106 291.757C409.982 291.705 409.869 291.631 409.776 291.538C409.682 291.445 409.609 291.336 409.561 291.216C409.512 291.096 409.49 290.969 409.495 290.841V285.889C409.545 285.318 410.101 284.985 410.707 285.033H414.899L414.896 291.597Z" fill="#ED017F"/>
<path d="M432.726 280.944C429.393 280.992 426.109 281.134 422.826 281.515L422.62 284.894L426.409 284.609L430.753 284.466C430.894 284.462 431.033 284.485 431.164 284.534C431.294 284.583 431.412 284.657 431.511 284.751C431.712 284.989 431.864 285.226 431.864 285.464V286.605H425.146C422.823 286.748 421.009 288.696 421.206 290.884V292.785C421.245 293.31 421.394 293.822 421.644 294.292C421.894 294.763 422.24 295.182 422.662 295.527C423.084 295.871 423.575 296.134 424.105 296.3C424.635 296.465 425.195 296.531 425.753 296.493H426.813C427.675 296.494 428.531 296.349 429.339 296.066C430.399 295.828 431.359 295.352 432.268 294.782L432.622 296.208H437.269V284.656C437.121 282.469 435.049 280.805 432.726 280.944ZM432.019 292.021C430.84 292.362 429.615 292.539 428.382 292.547V292.643H427.624C427.485 292.643 427.347 292.617 427.218 292.567C427.09 292.517 426.973 292.443 426.874 292.35C426.776 292.258 426.698 292.148 426.645 292.027C426.592 291.905 426.564 291.776 426.564 291.644V291.36C426.56 291.228 426.585 291.097 426.637 290.974C426.69 290.852 426.768 290.74 426.867 290.647C426.959 290.542 427.075 290.458 427.206 290.4C427.337 290.343 427.48 290.314 427.624 290.315H432.019V292.021Z" fill="#ED017F"/>
<path d="M421.512 300.106H419.543V302.056H421.512V300.106Z" fill="#ED017F"/>
<path d="M425.251 302.15C424.875 302.15 424.502 302.102 424.14 302.008L423.281 301.58C423.069 301.391 422.897 301.165 422.776 300.914C422.551 300.465 422.484 299.96 422.584 299.473C422.685 298.986 422.948 298.542 423.335 298.205L424.143 297.825C424.471 297.746 424.81 297.714 425.149 297.729L425.957 297.825L426.665 298.062V299.203H426.412L426.21 299.013C426.018 298.871 425.793 298.773 425.554 298.728L425.149 298.68C424.796 298.68 424.493 298.775 424.291 299.013C424.05 299.275 423.923 299.613 423.937 299.96C423.937 300.245 424.038 300.625 424.291 300.862C424.407 300.961 424.542 301.037 424.69 301.086C424.837 301.134 424.993 301.156 425.149 301.148L425.604 301.1L426.009 300.958L426.21 300.815L426.412 300.673H426.665V301.814L425.957 302.099L425.251 302.15Z" fill="#ED017F"/>
<path d="M432.123 299.964C432.123 299.345 431.92 298.728 431.465 298.299C430.96 297.92 430.354 297.634 429.698 297.729C429.039 297.722 428.396 297.925 427.875 298.305C427.471 298.733 427.168 299.351 427.269 299.969C427.262 300.557 427.477 301.127 427.875 301.58C428.376 301.979 429.011 302.198 429.668 302.198C430.324 302.198 430.96 301.979 431.461 301.58C431.918 301.104 432.171 300.582 432.123 299.964ZM430.558 300.582L430.355 300.962L430.052 301.2C429.952 301.274 429.825 301.308 429.699 301.295C429.547 301.295 429.346 301.295 429.244 301.2C429.093 301.152 428.991 301.104 428.941 301.01L428.688 300.629L428.638 300.011C428.601 299.789 428.618 299.561 428.688 299.345L428.941 298.918L429.244 298.728L429.649 298.68L429.999 298.726C430.07 298.727 430.139 298.745 430.201 298.778C430.263 298.811 430.315 298.859 430.352 298.916L430.554 299.343L430.605 299.962L430.558 300.582Z" fill="#ED017F"/>
<path d="M437.323 299.013V302.008H435.858V299.394L435.757 299.013L435.555 298.822L435.101 298.775L434.646 298.871L434.293 299.013V302.008H432.877V297.825H434.343V298.252L435.049 297.872C435.288 297.774 435.547 297.726 435.807 297.729C436.081 297.725 436.349 297.794 436.582 297.929C436.815 298.064 437.002 298.258 437.121 298.49C437.355 298.259 437.628 298.066 437.929 297.92C438.183 297.806 438.457 297.742 438.737 297.729C439.141 297.634 439.546 297.825 439.798 298.11C440.101 298.49 440.252 298.871 440.202 299.298V302.056H438.788V299.441L438.687 299.06C438.664 299.012 438.629 298.97 438.585 298.937C438.541 298.904 438.489 298.882 438.434 298.871L438.03 298.822L437.677 298.871L437.323 299.013Z" fill="#ED017F"/>
<path d="M350.14 277.43C349.044 276.395 347.735 275.582 346.293 275.043C344.851 274.503 343.306 274.248 341.755 274.292C340.243 274.267 338.739 274.522 337.332 275.044C335.924 275.565 334.639 276.343 333.551 277.332C332.462 278.321 331.592 279.502 330.989 280.808C330.386 282.114 330.062 283.519 330.036 284.942C330.036 285.07 330.036 285.198 330.036 285.325C329.833 291.311 334.886 296.306 341.25 296.445H341.755C348.12 296.589 353.421 291.834 353.525 285.844V285.274C353.569 283.817 353.292 282.367 352.709 281.017C352.126 279.666 351.251 278.445 350.14 277.43Z" fill="#F9A024"/>
<path d="M341.755 296.683C338.624 296.735 335.598 295.619 333.336 293.58C331.075 291.541 329.761 288.743 329.682 285.797V285.321C329.627 282.374 330.812 279.526 332.978 277.397C335.145 275.268 338.118 274.032 341.249 273.958H341.754C343.303 273.923 344.844 274.176 346.289 274.701C347.734 275.227 349.055 276.016 350.176 277.022C351.297 278.029 352.197 279.233 352.824 280.567C353.45 281.9 353.791 283.337 353.828 284.795V285.321C353.869 286.78 353.604 288.232 353.047 289.594C352.489 290.956 351.652 292.201 350.582 293.257C349.511 294.313 348.23 295.159 346.811 295.748C345.392 296.336 343.863 296.654 342.313 296.684L341.755 296.683ZM341.755 274.53C338.789 274.466 335.918 275.51 333.768 277.435C331.619 279.359 330.368 282.007 330.289 284.798V285.324C330.188 291.172 335.036 296.021 341.3 296.116H341.755C343.227 296.16 344.693 295.928 346.069 295.434C347.445 294.94 348.703 294.193 349.769 293.238C350.836 292.283 351.69 291.137 352.283 289.868C352.875 288.6 353.194 287.233 353.221 285.847V285.321C353.373 279.522 348.422 274.672 342.265 274.577L341.755 274.53Z" fill="#ED017F"/>
<path d="M335.694 281.566C336.108 281.214 336.65 281.025 337.209 281.04C337.833 281.03 338.452 281.144 339.027 281.372C339.652 281.607 340.245 281.911 340.795 282.276L341.048 282.086C340.694 281.42 340.139 280.897 339.482 280.47C338.773 280.093 337.972 279.896 337.158 279.898C336.726 279.909 336.299 279.989 335.896 280.136C335.487 280.289 335.137 280.554 334.89 280.897C334.637 281.182 334.485 281.563 334.331 281.895C334.222 282.25 334.188 282.621 334.23 282.988H334.584C334.848 282.449 335.226 281.965 335.694 281.566ZM343.321 280.523C343.826 280.191 344.433 279.997 345.039 279.81C345.544 279.668 346.15 279.763 346.655 280.048C347.195 280.365 347.674 280.767 348.069 281.237L348.372 281.141C348.322 280.808 348.22 280.38 347.967 280.095C347.784 279.734 347.506 279.423 347.159 279.192C346.856 278.907 346.402 278.764 345.998 278.666C345.566 278.57 345.116 278.57 344.684 278.666C343.916 278.842 343.211 279.208 342.643 279.726C342.074 280.244 341.663 280.895 341.452 281.612L341.755 281.755L343.27 280.472L343.321 280.523ZM348.725 287.984C348.488 288.543 348.147 289.058 347.719 289.504C347.518 289.695 347.316 289.933 347.013 290.123L346.255 290.649C345.138 291.211 343.923 291.581 342.668 291.742C341.41 291.924 340.127 291.892 338.88 291.648C338.268 291.505 337.675 291.297 337.112 291.029C336.506 290.791 336.001 290.411 335.446 290.031L335.294 290.174C336.103 291.274 337.274 292.093 338.627 292.503C339.986 292.969 341.453 293.084 342.875 292.836C344.298 292.66 345.652 292.154 346.815 291.363C347.974 290.529 348.737 289.299 348.939 287.939H348.725V287.984ZM341.553 284.416L342.008 288.362L342.26 288.314L341.755 284.416H341.553Z" fill="#ED017F"/>
</g>
<g clip-path="url(#clip2)">
<path d="M239.144 493.434H239.714H239.144ZM208.312 493.539H208.208L208.83 493.749L208.312 493.539ZM280.598 505.604L281.583 502.666C279.873 503.505 278.214 504.45 276.712 505.604H280.598Z" fill="#0097CD"/>
<path d="M273.084 497.473L272.152 500.201C271.998 500.876 271.622 501.478 271.085 501.907C270.548 502.336 269.882 502.567 269.198 502.561C266.711 502.509 267.851 499.781 267.851 499.781L268.11 498.942C263.939 500.121 260.126 502.339 257.021 505.394C259.974 504.764 261.166 503.663 262.151 502.404C262.358 502.142 262.514 501.879 262.617 501.565C263.135 505.446 268.421 505.604 268.421 505.604C273.706 505.656 275.52 503.558 276.453 501.879L276.712 501.46L275.727 504.345C277.748 503.033 279.924 501.932 282.153 501.04L283.966 495.69C282.204 495.847 275.883 496.529 273.084 497.473ZM292.775 497.368L293.293 495.532L293.397 495.218L287.645 495.375L287.49 496.267L287.179 497.368L286.609 499.466C288.526 498.942 290.547 498.575 292.516 498.312L292.775 497.368Z" fill="#FFB600"/>
<path d="M285.106 505.184H290.754L292.309 499.204C290.288 499.624 288.267 500.096 286.246 500.725L285.106 505.184Z" fill="#0097CD"/>
<path d="M301.843 497.998L302.413 496.162C300.962 496.004 299.045 495.899 296.765 495.795V495.847L296.195 497.998C298.061 497.893 299.978 497.893 301.843 497.998Z" fill="#FFB600"/>
<path d="M294.278 505.185H299.926L301.792 498.208C300.341 498.261 298.32 498.366 295.988 498.68L294.278 505.185ZM298.838 489.448C297.283 489.343 294.071 489.553 292.827 492.124C292.827 492.124 293.345 489.448 288.474 489.448C287.438 489.448 285.987 489.396 284.588 491.127L283.811 489.606H280.494L279.251 493.12L278.836 494.379C278.836 490.655 275.675 489.501 272.825 489.553C268.525 489.553 266.245 491.284 265.053 493.225L264.483 494.327C264.327 490.76 260.752 489.658 257.954 489.658C254.378 489.658 252.202 490.917 250.906 492.386L251.269 490.917L248.367 490.97L249.559 486.353L243.237 487.875L242.305 490.917H238.004L238.574 488.924C239.04 487.612 239.714 485.357 241.735 486.249L242.616 484.413C242.616 484.413 238.47 483.259 235.827 484.57C234.325 485.252 233.133 486.249 231.786 490.917H229.247L228.936 492.333C227.951 490.288 225.516 489.658 223.339 489.658C219.038 489.658 216.758 491.389 215.618 493.33C214.738 494.956 214.064 496.687 213.598 498.471V498.313C213.494 497.946 213.39 497.579 213.183 497.264C212.406 495.69 210.592 494.536 208.83 493.75C208.235 493.529 207.63 493.337 207.017 493.173C202.664 492.071 202.819 490.497 203.234 489.501C203.597 488.452 204.737 487.403 207.12 487.665C210.022 487.927 209.089 491.389 209.089 491.389H214.841C214.997 490.602 215.048 489.763 215.1 488.976C214.945 484.832 209.918 484.15 207.794 484.045C197.119 483.521 196.601 490.13 196.86 491.442C197.068 492.228 197.43 492.963 198 493.54C199.478 495.075 201.371 496.134 203.441 496.582C207.794 497.684 207.638 499.205 207.276 500.254C206.861 501.251 205.721 502.3 203.338 502.09C203.031 502.078 202.73 502.002 202.453 501.866C202.177 501.731 201.931 501.539 201.731 501.303C200.902 500.202 200.954 498.366 200.954 498.366H195.461C195.461 498.366 194.529 506.181 206.239 505.604C210.488 505.185 212.354 503.296 213.131 501.513C213.442 505.552 218.935 505.762 218.935 505.762C224.22 505.814 226.034 503.716 226.967 502.037C227.692 500.779 228.832 497.317 228.832 497.317C229.298 496.058 229.454 494.746 229.247 493.435H231.216L227.64 505.709H233.807L237.382 493.435H241.527L239.61 500.516C238.574 504.608 241.268 505.604 242.823 505.709C246.087 505.972 248.108 504.818 248.108 504.818L248.264 503.139C249.715 505.552 253.394 505.709 253.549 505.762C254.223 504.975 256.917 502.142 262.41 499.52H257.591L257.332 500.359C257.168 501.038 256.782 501.641 256.236 502.07C255.69 502.499 255.017 502.728 254.326 502.719C252.409 502.719 253.394 499.939 253.394 499.939L255.155 495.166C256.14 492.805 257.176 492.596 257.539 492.596C260.13 492.596 258.886 495.69 258.886 495.69L258.835 495.9H263.861C263.446 497.002 263.135 498.156 262.825 499.257C264.742 498.366 266.763 497.631 268.835 497.002L269.561 494.956C270.39 492.596 271.996 492.386 272.411 492.438C274.95 492.543 273.706 495.586 273.706 495.586L273.654 495.795C277.126 495.113 280.65 494.694 284.225 494.641C284.64 493.802 285.469 492.753 286.972 493.015C287.49 493.12 287.801 493.645 287.749 494.589H288.785C290.288 494.589 291.894 494.694 293.553 494.799C293.915 494.012 294.693 492.858 295.936 492.805C296.61 492.805 297.283 493.068 296.869 495.166L302.413 495.9L302.88 494.117C302.88 494.117 304.175 489.92 298.838 489.448ZM224.272 495.743L222.666 500.359C222.502 501.024 222.122 501.614 221.586 502.033C221.049 502.452 220.389 502.675 219.712 502.667C217.225 502.667 218.365 499.887 218.365 499.887L220.127 495.113C220.904 492.753 222.562 492.543 222.925 492.596C225.464 492.701 224.272 495.743 224.272 495.743ZM250.181 493.487C249.3 495.009 248.523 497.421 247.953 499.52C247.642 500.621 247.694 501.775 248.108 502.824C244.792 503.664 245.673 500.674 245.673 500.674L247.642 493.487L250.181 493.435V493.487Z" fill="#0097CD"/>
</g>
<g clip-path="url(#clip3)">
<path d="M403.654 579.049L397.743 580.359V605.236H403.654V579.049Z" fill="#56BD82"/>
<path d="M386.824 586.486C385.02 586.486 383.257 587.043 381.757 588.088C380.257 589.133 379.088 590.618 378.398 592.355C377.707 594.092 377.527 596.004 377.879 597.848C378.231 599.693 379.099 601.387 380.375 602.716C381.65 604.046 383.276 604.952 385.045 605.319C386.814 605.685 388.648 605.497 390.315 604.777C391.981 604.058 393.406 602.839 394.408 601.276C395.41 599.712 395.945 597.874 395.945 595.994C395.945 593.472 394.984 591.054 393.274 589.271C391.563 587.488 389.243 586.486 386.824 586.486ZM386.824 599.074C386.24 599.074 385.668 598.894 385.182 598.555C384.696 598.217 384.318 597.735 384.094 597.173C383.87 596.61 383.812 595.99 383.926 595.393C384.04 594.795 384.321 594.246 384.735 593.815C385.148 593.384 385.674 593.091 386.248 592.972C386.821 592.853 387.415 592.914 387.955 593.147C388.495 593.38 388.957 593.775 389.282 594.282C389.607 594.789 389.78 595.384 389.78 595.994C389.78 596.811 389.469 597.594 388.914 598.172C388.36 598.75 387.608 599.074 386.824 599.074Z" fill="#56BD82"/>
<path d="M386.824 607.718C387.409 607.718 387.98 607.898 388.466 608.237C388.952 608.575 389.331 609.057 389.555 609.619C389.779 610.182 389.837 610.802 389.723 611.399C389.609 611.997 389.328 612.546 388.914 612.977C388.501 613.408 387.974 613.701 387.401 613.82C386.828 613.939 386.233 613.878 385.693 613.645C385.153 613.412 384.692 613.017 384.367 612.51C384.042 612.003 383.869 611.408 383.869 610.798C383.869 609.981 384.18 609.198 384.735 608.62C385.289 608.042 386.041 607.718 386.824 607.718Z" fill="#56BD82"/>
<path d="M373.672 591.389C374.398 590.164 374.797 588.759 374.828 587.319C374.859 585.879 374.52 584.457 373.848 583.199C373.175 581.941 372.192 580.894 371.001 580.164C369.81 579.435 368.453 579.05 367.072 579.049H357.877V605.236H368.221C369.76 605.235 371.264 604.758 372.542 603.864C373.82 602.971 374.814 601.701 375.398 600.217C375.983 598.733 376.131 597.101 375.823 595.53C375.516 593.958 374.767 592.517 373.672 591.389ZM363.796 585.211H367.08C367.57 585.211 368.04 585.414 368.386 585.775C368.733 586.136 368.927 586.626 368.927 587.136C368.927 587.647 368.733 588.137 368.386 588.498C368.04 588.859 367.57 589.062 367.08 589.062H363.796V585.211ZM368.229 599.074H363.796V595.223H368.229C368.719 595.223 369.189 595.426 369.536 595.787C369.882 596.148 370.077 596.638 370.077 597.149C370.077 597.659 369.882 598.149 369.536 598.51C369.189 598.871 368.719 599.074 368.229 599.074Z" fill="#56BD82"/>
<path d="M414.82 592.998V586.837H411.864V582.13L405.953 583.439V599.382C405.953 603.139 408.194 605.304 411.495 605.484C411.527 605.484 411.569 605.493 411.601 605.493H411.659C411.733 605.493 411.798 605.501 411.872 605.501H411.946C412.953 605.497 413.943 605.232 414.828 604.731V600.195C414.397 600.317 413.952 600.378 413.506 600.375C412.324 600.375 411.872 599.297 411.872 597.833V592.998H414.82Z" fill="#56BD82"/>
</g>
<g clip-path="url(#clip4)">
<path d="M194.382 124.883C196.546 124.913 198.611 125.323 200.539 126.302C202.239 127.172 203.626 128.387 204.572 130.062C205.187 131.168 205.59 132.378 205.761 133.632C206.113 136.038 205.757 138.365 204.963 140.641C204.496 141.976 203.85 143.228 203.15 144.458C201.725 146.961 199.893 149.13 197.763 151.053C195.03 153.523 192.033 155.685 188.826 157.5C187.583 158.201 186.295 158.789 184.91 159.149C184.061 159.378 183.184 159.489 182.305 159.478C181.148 159.454 180.242 158.928 179.538 158.041C178.888 157.245 178.553 156.239 178.596 155.212C178.604 154.927 178.645 154.643 178.719 154.367C179.138 152.88 179.708 151.456 180.559 150.157C181.21 149.165 181.985 148.284 183 147.654C184.128 146.952 185.354 146.652 186.68 146.942C187.094 147.039 187.484 147.22 187.826 147.474C188.699 148.097 188.653 149.075 188.234 149.699C187.875 150.242 187.473 150.755 187.033 151.234C186.288 152.036 185.496 152.795 184.723 153.57C184.039 154.257 183.396 154.977 182.875 155.798C182.605 156.224 182.356 156.658 182.282 157.169C182.187 157.811 182.521 158.248 183.169 158.308C183.504 158.335 183.842 158.301 184.165 158.208C185.161 157.933 186.085 157.489 186.993 157.011C188.394 156.271 189.687 155.367 190.947 154.413C192.474 153.256 193.959 152.05 195.328 150.709C196.887 149.182 198.276 147.524 199.339 145.61C200.116 144.212 200.688 142.736 200.943 141.153C201.168 139.759 201.042 138.4 200.395 137.12C200.084 136.488 199.597 135.958 198.992 135.594C198.713 135.426 198.405 135.312 198.084 135.256C196.915 135.049 195.785 135.219 194.674 135.589C193.516 135.976 192.442 136.54 191.397 137.156C189.131 138.499 186.862 139.841 184.702 141.353C183.619 142.11 182.57 142.916 181.509 143.704C180.55 144.416 179.598 145.136 178.551 145.718C177.7 146.201 176.78 146.55 175.823 146.752C174.637 146.992 173.544 146.769 172.539 146.125C171.497 145.457 170.767 144.54 170.447 143.326C170.243 142.56 170.323 141.801 170.499 141.045C170.756 139.934 171.244 138.929 171.852 137.975C173.356 135.62 175.247 133.623 177.446 131.915C180.705 129.384 184.291 127.435 188.17 126.025C190.161 125.298 192.261 124.912 194.382 124.883Z" fill="#E20010"/>
<path d="M167.57 178.724C167.559 177.984 167.475 177.32 167.047 176.743C166.839 176.464 166.55 176.256 166.22 176.145C165.37 175.84 164.505 175.876 163.66 176.137C162.984 176.346 162.331 176.631 161.669 176.885C161.538 176.933 161.419 176.995 161.261 177.066C160.949 176.293 160.642 175.543 160.321 174.76C160.786 174.54 161.224 174.315 161.676 174.122C162.717 173.678 163.796 173.373 164.932 173.304C166.067 173.235 167.187 173.295 168.22 173.845C169.388 174.463 170.232 175.355 170.585 176.654C170.636 176.823 170.666 176.999 170.676 177.176C170.721 178.862 170.782 180.547 170.789 182.233C170.794 183.385 170.718 184.537 170.684 185.69C170.678 185.848 170.612 185.998 170.499 186.109C169.692 186.997 168.704 187.611 167.584 188.023C166.384 188.461 165.106 188.644 163.83 188.562C162.653 188.497 161.637 188.016 160.778 187.217C159.919 186.418 159.319 185.454 159.151 184.272C158.922 182.653 159.39 181.248 160.555 180.092C161.304 179.349 162.228 178.965 163.268 178.829C164.419 178.679 165.574 178.719 166.728 178.722L167.57 178.724ZM167.419 181.356C167.351 181.342 167.283 181.333 167.214 181.328C166.821 181.32 166.424 181.306 166.03 181.312C165.557 181.319 165.083 181.321 164.612 181.365C164.127 181.412 163.655 181.553 163.279 181.877C162.653 182.416 162.468 183.118 162.62 183.91C162.81 184.89 163.358 185.574 164.335 185.866C164.838 186.016 165.372 186.039 165.886 185.931C166.365 185.844 166.811 185.63 167.178 185.312C167.241 185.264 167.292 185.203 167.328 185.133C167.365 185.063 167.386 184.987 167.391 184.908C167.406 184.564 167.45 184.221 167.453 183.876C167.458 183.088 167.446 182.3 167.44 181.512C167.436 181.459 167.429 181.407 167.419 181.356Z" fill="#E20010"/>
<path d="M206.899 181.29C204.094 181.29 201.341 181.23 198.55 181.303C198.564 181.499 198.572 181.685 198.59 181.866C198.662 182.606 198.822 183.325 199.135 184.003C199.378 184.557 199.756 185.041 200.235 185.411C200.993 185.986 201.859 186.081 202.767 185.964C203.518 185.867 204.217 185.593 204.914 185.316C205.233 185.19 205.551 185.055 205.895 184.915C206.221 185.598 206.542 186.269 206.875 186.96C206.814 187.005 206.756 187.054 206.692 187.091C205.332 187.897 203.871 188.416 202.294 188.553C200.855 188.678 199.482 188.442 198.24 187.647C197.393 187.106 196.801 186.341 196.305 185.486C195.695 184.421 195.325 183.236 195.223 182.014C195.015 179.785 195.489 177.71 196.644 175.789C197.45 174.453 198.652 173.728 200.157 173.478C201.541 173.235 202.966 173.472 204.196 174.149C204.886 174.522 205.366 175.109 205.761 175.767C206.284 176.635 206.56 177.592 206.692 178.583C206.799 179.383 206.833 180.192 206.897 181C206.905 181.083 206.899 181.169 206.899 181.29ZM203.499 178.753C203.336 178.008 203.225 177.247 202.736 176.615C202.491 176.301 202.147 176.079 201.76 175.985C200.73 175.713 199.695 176.187 199.252 177.161C199.094 177.508 199.001 177.885 198.886 178.25C198.835 178.415 198.801 178.587 198.76 178.753C199.037 178.826 203.216 178.83 203.5 178.755L203.499 178.753Z" fill="#E20010"/>
<path d="M188.497 169.908L191.844 169.391V173.497C192.587 173.541 193.294 173.493 194.006 173.569V176.098C193.286 176.11 192.582 176.089 191.848 176.133C191.848 176.275 191.848 176.382 191.848 176.488C191.842 178.923 191.837 181.358 191.832 183.793C191.832 184.176 191.863 184.56 191.898 184.942C191.953 185.53 192.279 185.903 192.849 186.046C193.164 186.126 193.487 186.171 193.806 186.231L194.126 186.297V188.443C194.09 188.461 194.052 188.474 194.012 188.481C193.062 188.524 192.116 188.499 191.197 188.22C190.3 187.95 189.552 187.46 189.045 186.653C188.756 186.195 188.61 185.681 188.546 185.151C188.508 184.818 188.489 184.483 188.49 184.149C188.49 179.525 188.493 174.902 188.498 170.279L188.497 169.908Z" fill="#E20010"/>
<path d="M208.739 169.911L211.976 169.35V169.796C211.976 173.996 211.977 178.195 211.981 182.394C211.981 183.163 211.987 183.931 211.993 184.701C211.999 185.459 212.276 185.846 213.002 186.072C213.248 186.14 213.499 186.194 213.752 186.233C213.906 186.261 214.062 186.275 214.25 186.298V188.491C214.232 188.505 214.212 188.515 214.19 188.52C213.27 188.558 212.355 188.542 211.461 188.281C210.919 188.126 210.415 187.862 209.979 187.505C209.166 186.841 208.835 185.951 208.75 184.947C208.725 184.653 208.728 184.356 208.729 184.061C208.729 179.468 208.732 174.874 208.739 170.282V169.911Z" fill="#E20010"/>
<path d="M181.989 188.297H178.72C178.716 188.161 178.709 188.036 178.709 187.912C178.705 185.951 178.702 183.989 178.7 182.027C178.696 180.46 178.687 178.892 178.687 177.325C178.688 177.041 178.71 176.757 178.753 176.476C178.801 176.155 178.969 175.888 179.202 175.663C180.487 174.414 182.025 173.666 183.78 173.343C184.879 173.142 186.006 173.14 187.106 173.339C187.164 173.349 187.222 173.362 187.279 173.376C187.307 173.384 187.334 173.397 187.388 173.418C187.017 174.361 186.565 175.263 186.138 176.153C185.629 176.153 185.146 176.138 184.665 176.157C183.834 176.184 183.018 176.387 182.271 176.752C182.059 176.856 181.98 176.985 181.981 177.229C181.99 180.799 181.992 184.369 181.987 187.939L181.989 188.297Z" fill="#E20010"/>
<path d="M176.308 173.635C176.343 178.528 176.305 183.392 176.337 188.286H173.137C173.129 188.168 173.114 188.044 173.114 187.921C173.114 184.845 173.114 181.769 173.114 178.692C173.114 177.282 173.125 175.872 173.131 174.462C173.131 174.355 173.131 174.248 173.131 174.113L176.308 173.635Z" fill="#E20010"/>
<path d="M174.576 172.195C173.014 172.191 172.035 170.638 172.683 169.172C173.082 168.273 173.766 167.931 174.752 167.937C176.074 167.948 177.055 169.262 176.739 170.545C176.488 171.57 175.664 172.198 174.576 172.195Z" fill="#E20010"/>
</g>
<path d="M440.842 289.887C457.392 289.887 457.392 494.852 303.018 494.852" stroke="#113366" stroke-opacity="0.5" stroke-width="3" stroke-dasharray="6 9"/>
<path d="M305.736 494.852C305.736 496.473 304.475 497.706 303.018 497.706C301.561 497.706 300.299 496.473 300.299 494.852C300.299 493.231 301.561 491.999 303.018 491.999C304.475 491.999 305.736 493.231 305.736 494.852Z" fill="white" stroke="#113366" stroke-width="3"/>
<path d="M443.561 289.887C443.561 291.509 442.299 292.741 440.842 292.741C439.385 292.741 438.124 291.509 438.124 289.887C438.124 288.266 439.385 287.034 440.842 287.034C442.299 287.034 443.561 288.266 443.561 289.887Z" fill="white" stroke="#113366" stroke-width="3"/>
<path d="M307.957 11.2473C285.458 11.2473 285.458 289.887 329.05 289.887" stroke="#113366" stroke-opacity="0.5" stroke-width="3" stroke-dasharray="6 9"/>
<path d="M331.768 289.887C331.768 291.509 330.507 292.741 329.05 292.741C327.593 292.741 326.331 291.509 326.331 289.887C326.331 288.266 327.593 287.034 329.05 287.034C330.507 287.034 331.768 288.266 331.768 289.887Z" fill="white" stroke="#113366" stroke-width="3"/>
<path d="M310.676 11.2472C310.676 12.8682 309.414 14.1009 307.957 14.1009C306.5 14.1009 305.238 12.8682 305.238 11.2472C305.238 9.62616 306.5 8.39343 307.957 8.39343C309.414 8.39343 310.676 9.62616 310.676 11.2472Z" fill="white" stroke="#113366" stroke-width="3"/>
<path d="M121.636 436.827C219.923 436.827 230.762 289.887 329.05 289.887" stroke="#113366" stroke-opacity="0.5" stroke-width="3" stroke-dasharray="6 9"/>
<path d="M331.768 289.887C331.768 291.509 330.507 292.741 329.05 292.741C327.593 292.741 326.331 291.509 326.331 289.887C326.331 288.266 327.593 287.034 329.05 287.034C330.507 287.034 331.768 288.266 331.768 289.887Z" fill="white" stroke="#113366" stroke-width="3"/>
<path d="M124.354 436.827C124.354 438.448 123.093 439.68 121.636 439.68C120.179 439.68 118.917 438.448 118.917 436.827C118.917 435.206 120.179 433.973 121.636 433.973C123.093 433.973 124.354 435.206 124.354 436.827Z" fill="white" stroke="#113366" stroke-width="3"/>
<path d="M329.05 289.887C304.644 289.887 304.644 592.143 357.877 592.143" stroke="#113366" stroke-opacity="0.5" stroke-width="3" stroke-dasharray="6 9"/>
<path d="M360.595 592.143C360.595 593.764 359.334 594.996 357.877 594.996C356.42 594.996 355.158 593.764 355.158 592.143C355.158 590.522 356.42 589.289 357.877 589.289C359.334 589.289 360.595 590.522 360.595 592.143Z" fill="white" stroke="#113366" stroke-width="3"/>
<path d="M331.768 289.887C331.768 291.509 330.507 292.741 329.05 292.741C327.593 292.741 326.331 291.509 326.331 289.887C326.331 288.266 327.593 287.034 329.05 287.034C330.507 287.034 331.768 288.266 331.768 289.887Z" fill="white" stroke="#113366" stroke-width="3"/>
<path d="M66.7943 260.862C139.292 260.862 122.946 494.852 195.444 494.852" stroke="#113366" stroke-opacity="0.5" stroke-width="3" stroke-dasharray="6 9"/>
<path d="M198.162 494.852C198.162 496.473 196.901 497.706 195.443 497.706C193.986 497.706 192.725 496.473 192.725 494.852C192.725 493.231 193.986 491.999 195.443 491.999C196.901 491.999 198.162 493.231 198.162 494.852Z" fill="white" stroke="#113366" stroke-width="3"/>
<path d="M69.5128 260.862C69.5128 262.484 68.2514 263.716 66.7942 263.716C65.337 263.716 64.0756 262.484 64.0756 260.862C64.0756 259.241 65.337 258.009 66.7942 258.009C68.2514 258.009 69.5128 259.241 69.5128 260.862Z" fill="white" stroke="#113366" stroke-width="3"/>
<path d="M153.979 38.9102C220.37 38.9102 241.566 11.2473 307.957 11.2473" stroke="#113366" stroke-opacity="0.5" stroke-width="3" stroke-dasharray="6 9"/>
<path d="M310.675 11.2472C310.675 12.8682 309.414 14.1009 307.957 14.1009C306.5 14.1009 305.238 12.8682 305.238 11.2472C305.238 9.62616 306.5 8.39343 307.957 8.39343C309.414 8.39343 310.675 9.62616 310.675 11.2472Z" fill="white" stroke="#113366" stroke-width="3"/>
<path d="M156.697 38.9103C156.697 40.5313 155.436 41.764 153.978 41.764C152.521 41.764 151.26 40.5313 151.26 38.9103C151.26 37.2892 152.521 36.0565 153.978 36.0565C155.436 36.0565 156.697 37.2892 156.697 38.9103Z" fill="white" stroke="#113366" stroke-width="3"/>
<path d="M219.367 156.735C268.027 156.735 259.297 11.2473 307.957 11.2473" stroke="#113366" stroke-opacity="0.5" stroke-width="3" stroke-dasharray="6 9"/>
<path d="M310.676 11.2472C310.676 12.8682 309.414 14.1009 307.957 14.1009C306.5 14.1009 305.238 12.8682 305.238 11.2472C305.238 9.62616 306.5 8.39343 307.957 8.39343C309.414 8.39343 310.676 9.62616 310.676 11.2472Z" fill="white" stroke="#113366" stroke-width="3"/>
<path d="M222.085 156.735C222.085 158.356 220.824 159.589 219.366 159.589C217.909 159.589 216.648 158.356 216.648 156.735C216.648 155.114 217.909 153.881 219.366 153.881C220.824 153.881 222.085 155.114 222.085 156.735Z" fill="white" stroke="#113366" stroke-width="3"/>
<path d="M153.979 38.9102C169.129 38.9102 155.176 142.181 170.327 142.181" stroke="#113366" stroke-opacity="0.5" stroke-width="3" stroke-dasharray="6 9"/>
<path d="M173.045 142.181C173.045 143.802 171.784 145.034 170.327 145.034C168.869 145.034 167.608 143.802 167.608 142.181C167.608 140.56 168.869 139.327 170.327 139.327C171.784 139.327 173.045 140.56 173.045 142.181Z" fill="white" stroke="#113366" stroke-width="3"/>
<path d="M156.697 38.9103C156.697 40.5313 155.436 41.764 153.978 41.764C152.521 41.764 151.26 40.5313 151.26 38.9103C151.26 37.2892 152.521 36.0565 153.978 36.0565C155.436 36.0565 156.697 37.2892 156.697 38.9103Z" fill="white" stroke="#113366" stroke-width="3"/>
<path d="M66.8268 260.879C111.549 260.879 109.256 156.735 153.978 156.735" stroke="#113366" stroke-opacity="0.5" stroke-width="3" stroke-dasharray="6 9"/>
<path d="M156.697 156.735C156.697 158.356 155.436 159.589 153.978 159.589C152.521 159.589 151.26 158.356 151.26 156.735C151.26 155.114 152.521 153.881 153.978 153.881C155.436 153.881 156.697 155.114 156.697 156.735Z" fill="white" stroke="#113366" stroke-width="3"/>
<path d="M69.5458 260.879C69.5458 262.5 68.2844 263.733 66.8272 263.733C65.37 263.733 64.1086 262.5 64.1086 260.879C64.1086 259.258 65.37 258.025 66.8272 258.025C68.2844 258.025 69.5458 259.258 69.5458 260.879Z" fill="white" stroke="#113366" stroke-width="3"/>
<defs>
<clipPath id="clip0">
<rect width="66.7943" height="31.2019" fill="white" transform="translate(0 245.261)"/>
</clipPath>
<clipPath id="clip1">
<rect width="111.793" height="105.216" fill="white" transform="translate(329.05 237.28)"/>
</clipPath>
<clipPath id="clip2">
<rect width="107.574" height="21.7688" fill="white" transform="translate(195.461 483.992)"/>
</clipPath>
<clipPath id="clip3">
<rect width="56.9509" height="34.83" fill="white" transform="translate(357.877 579.049)"/>
</clipPath>
<clipPath id="clip4">
<rect width="65.3881" height="65.3063" fill="white" transform="translate(153.978 124.082)"/>
</clipPath>
</defs>
</svg>
