<svg width="22" height="24" viewBox="0 0 22 24" fill="none" xmlns="http://www.w3.org/2000/svg">
<path d="M15.4207 0.435883C18.9013 0.435883 21.2104 3.19334 21.2104 7.16014V16.5321C21.2104 20.4989 18.9013 23.2564 15.4207 23.2564H6.47373C2.99321 23.2564 0.684082 20.4989 0.684082 16.5321V7.16014C0.684082 3.19705 2.99931 0.435883 6.47373 0.435883H15.4207ZM15.4207 2.02801H6.47373C3.81355 2.02801 2.11615 4.05236 2.11615 7.16014V16.5321C2.11615 19.6441 3.8079 21.6643 6.47373 21.6643H15.4207C18.0866 21.6643 19.7783 19.6441 19.7783 16.5321V7.16014C19.7783 4.04823 18.0866 2.02801 15.4207 2.02801ZM6.52829 9.14134C6.89079 9.14134 7.19037 9.44082 7.23778 9.82938L7.24432 9.9374V17.2189C7.24432 17.6585 6.92374 18.0149 6.52829 18.0149C6.16579 18.0149 5.8662 17.7155 5.81879 17.3269L5.81225 17.2189V9.9374C5.81225 9.49775 6.13283 9.14134 6.52829 9.14134ZM10.9836 5.65714C11.3461 5.65714 11.6457 5.95662 11.6931 6.34518L11.6996 6.4532V17.2189C11.6996 17.6585 11.3791 18.0149 10.9836 18.0149C10.6211 18.0149 10.3215 17.7155 10.2741 17.3269L10.2676 17.2189V6.4532C10.2676 6.01355 10.5882 5.65714 10.9836 5.65714ZM15.3662 12.9891C15.7287 12.9891 16.0283 13.2886 16.0757 13.6772L16.0822 13.7852V17.2189C16.0822 17.6585 15.7616 18.0149 15.3662 18.0149C15.0037 18.0149 14.7041 17.7155 14.6567 17.3269L14.6502 17.2189V13.7852C14.6502 13.3455 14.9707 12.9891 15.3662 12.9891Z" fill="#666666"/>
</svg>
