<svg width="24" height="24" viewBox="0 0 24 24" fill="none" xmlns="http://www.w3.org/2000/svg">
    <path
        d="M8.65701 22.2356V18.6683C8.65701 17.7576 9.40099 17.0194 10.318 17.0194H13.671C14.112 17.0194 14.534 17.1931 14.846 17.5023C15.157 17.8116 15.332 18.231 15.332 18.6683V22.2356C15.33 22.6142 15.479 22.9782 15.748 23.2469C16.016 23.5156 16.382 23.6667 16.763 23.6667H19.051C20.12 23.6695 21.145 23.25 21.902 22.501C22.658 21.7519 23.083 20.7349 23.083 19.6742V9.5114C23.083 8.6546 22.701 7.8419 22.039 7.2922L14.256 1.1219C12.903 0.0400011 10.963 0.0750002 9.64999 1.2048L2.04501 7.2922C1.35201 7.8257 0.936992 8.6408 0.916992 9.5114V19.6638C0.916992 21.8745 2.72201 23.6667 4.94901 23.6667H7.18399C7.97599 23.6667 8.62001 23.0323 8.62601 22.246L8.65701 22.2356Z"
        fill="rgb(149,149,149)" />
</svg>