<svg width="24" height="24" viewBox="0 0 24 24" fill="none" xmlns="http://www.w3.org/2000/svg">
<path fill-rule="evenodd" clip-rule="evenodd" d="M22.818 15.1911C23.3 15.2273 23.661 15.6484 23.625 16.1303L23.403 19.0574C23.22 21.4724 21.182 23.3636 18.761 23.3636H5.22699C2.80699 23.3636 0.768022 21.4724 0.585022 19.0574L0.364014 16.1303C0.327014 15.6484 0.689021 15.2273 1.17102 15.1911C1.65502 15.1736 2.07299 15.5154 2.10999 15.9984L2.33099 18.9244C2.44499 20.4318 3.71699 21.6136 5.22699 21.6136H18.761C20.272 21.6136 21.544 20.4318 21.658 18.9244L21.879 15.9984C21.917 15.5154 22.345 15.1724 22.818 15.1911ZM13.499 0.333496C15.253 0.333496 16.705 1.6475 16.924 3.3424L19.222 3.3434C21.667 3.3434 23.655 5.3372 23.655 7.7895V11.8017C23.655 12.1132 23.49 12.4002 23.222 12.5565C20.343 14.243 16.695 15.2266 12.869 15.3578V17.4562C12.869 17.9392 12.477 18.3312 11.994 18.3312C11.511 18.3312 11.119 17.9392 11.119 17.4562V15.3581C7.29602 15.2281 3.64799 14.2442 0.765991 12.5565C0.497991 12.4002 0.333984 12.1132 0.333984 11.8017V7.7779C0.333984 5.3325 2.32699 3.3434 4.77899 3.3434L7.06403 3.3424C7.28303 1.6475 8.73601 0.333496 10.489 0.333496H13.499ZM19.222 5.0934H4.77899C3.29199 5.0934 2.08398 6.2974 2.08398 7.7779V11.2919C4.85298 12.7966 8.34403 13.6213 11.978 13.6229L11.994 13.6214L12.007 13.6218L12.563 13.616C16 13.5342 19.278 12.7188 21.905 11.2919V7.7895C21.905 6.302 20.702 5.0934 19.222 5.0934ZM13.499 2.0835H10.489C9.70401 2.0835 9.04097 2.6181 8.84497 3.3427H15.144C14.948 2.6181 14.285 2.0835 13.499 2.0835Z" fill="black" fill-opacity="0.6"/>
</svg>
