<svg width="536" height="518" viewBox="0 0 536 518" fill="none" xmlns="http://www.w3.org/2000/svg">
<path d="M236.403 30H155C133.461 30 116 47.4609 116 69V150.403C116 171.942 133.461 189.403 155 189.403H236.403C257.942 189.403 275.403 171.942 275.403 150.403V69C275.403 47.4609 257.942 30 236.403 30Z" fill="#F5F5F5"/>
<path d="M406.292 283.288C406.761 282.798 407.132 283.217 406.632 283.677C405.32 285.061 403.474 286.932 401.41 288.972C399.345 291.012 397.451 292.821 396.054 294.109C395.582 294.601 395.189 294.196 395.69 293.732C397.002 292.348 398.86 290.478 400.924 288.437C402.989 286.397 404.895 284.576 406.292 283.288Z" fill="#E0E0E0"/>
<path d="M72.9494 413.752C72.8401 413.886 71.9536 413.351 70.97 412.538C69.9863 411.724 69.2576 410.995 69.3669 410.862C69.4762 410.728 70.3628 411.263 71.3464 412.076C72.3301 412.89 73.0587 413.618 72.9494 413.752Z" fill="#E0E0E0"/>
<path d="M101.306 382.707C102.113 382.253 102.427 382.918 101.554 383.231C101.502 383.249 101.451 383.272 101.403 383.3C100.596 383.754 100.282 383.088 101.154 382.776C101.206 382.757 101.257 382.734 101.306 382.707Z" fill="#E0E0E0"/>
<path d="M84.5591 355.582C85.5265 357.115 85.0529 357.443 84.0855 355.91C83.2961 354.659 82.774 353.566 82.8711 353.481C82.9683 353.396 83.7698 354.331 84.5591 355.582Z" fill="#E0E0E0"/>
<path d="M73.2773 382.748C74.7699 383.348 74.4644 384.079 73.0466 383.319C71.5229 382.707 71.8237 381.984 73.2773 382.748Z" fill="#E0E0E0"/>
<path d="M70.7635 422.605C72.1259 422.194 72.2621 422.954 70.8606 423.2C69.4982 423.611 69.362 422.852 70.7635 422.605Z" fill="#E0E0E0"/>
<path d="M71.8686 435.648C71.9536 435.793 71.0792 436.413 69.9255 437.02C68.7718 437.627 67.776 438.004 67.7032 437.858C67.6303 437.712 68.4925 437.093 69.6341 436.474C70.7756 435.854 71.7836 435.502 71.8686 435.648Z" fill="#E0E0E0"/>
<path d="M85.7735 425.75C85.8949 425.872 85.057 426.892 83.8911 428.034C82.7253 429.175 81.693 429.989 81.5716 429.867C81.4502 429.746 82.3002 428.726 83.4661 427.596C84.6319 426.467 85.6156 425.629 85.7735 425.75Z" fill="#E0E0E0"/>
<path d="M85.0449 412.72C84.9235 412.829 84.1341 412.185 83.2962 411.287C82.4583 410.388 81.8753 409.55 81.9968 409.429C82.1182 409.307 82.9076 409.951 83.7455 410.862C84.5835 411.773 85.1664 412.598 85.0449 412.72Z" fill="#E0E0E0"/>
<path d="M87.1701 396.058C87.3037 396.167 86.5993 397.163 85.6035 398.268C84.6077 399.374 83.6969 400.187 83.5755 400.078C83.454 399.969 84.1462 398.973 85.142 397.868C86.1379 396.763 87.0487 395.949 87.1701 396.058Z" fill="#E0E0E0"/>
<path d="M88.3724 383.975C88.2631 384.096 87.2795 383.319 86.1865 382.25C85.0935 381.182 84.3042 380.21 84.4256 380.089C84.547 379.967 85.5307 380.732 86.6115 381.813C87.6924 382.894 88.4939 383.853 88.3724 383.975Z" fill="#E0E0E0"/>
<path d="M89.1272 369.743C89.9665 368.326 90.6299 368.745 89.6353 370.058C89.6305 370.066 89.6257 370.073 89.6209 370.081C88.7717 371.448 88.1332 371.043 89.1131 369.766C89.1178 369.758 89.1225 369.75 89.1272 369.743Z" fill="#E0E0E0"/>
<path d="M93.6672 354.695C94.4725 353.128 95.0742 353.444 94.2015 354.975C93.4185 356.349 92.7636 355.993 93.6672 354.695Z" fill="#E0E0E0"/>
<path d="M100.213 359.359C100.286 359.517 99.5935 360.002 98.6705 360.44C97.7476 360.877 96.9461 361.12 96.8732 360.962C96.8003 360.804 97.4804 360.33 98.4034 359.881C99.3263 359.432 100.14 359.213 100.213 359.359Z" fill="#E0E0E0"/>
<path d="M68.0432 454.058C67.9217 453.925 68.6261 453.147 69.5976 452.309C70.5691 451.471 71.4556 450.913 71.5649 451.095C71.6742 451.277 70.982 452.006 69.9984 452.844C69.0147 453.682 68.1525 454.18 68.0432 454.058Z" fill="#E0E0E0"/>
<path d="M51.7669 405.016C51.9316 404.696 52.1844 404.892 52.0252 405.215C51.3392 407.119 51.1226 409.16 51.3938 411.165C51.6609 413.716 51.9524 416.8 52.3774 420.176C52.8025 423.552 53.4218 427.256 54.1869 431.106C55.7049 438.83 57.4172 445.776 58.5102 450.828C59.0567 453.354 59.4696 455.406 59.7246 456.827C59.8339 457.483 59.931 458.041 60.0039 458.479C60.0304 458.649 59.8661 458.669 59.8217 458.503C59.7246 458.139 59.591 457.519 59.4331 456.876C59.0688 455.382 58.5952 453.366 58.0123 450.925C56.7979 445.897 55.037 438.975 53.5068 431.215C52.7539 427.341 52.1588 423.625 51.7459 420.225C51.5273 418.525 51.3816 416.897 51.248 415.367C51.1144 413.837 50.9566 412.453 50.8958 411.153C50.6514 409.091 50.9399 407 51.7338 405.081C51.7447 405.059 51.7557 405.038 51.7669 405.016Z" fill="#E0E0E0"/>
<path d="M13.8685 404.984C15.3084 404.635 15.4549 405.234 14.0143 405.579C12.8484 405.858 11.8769 405.956 11.8405 405.786C11.804 405.616 12.7148 405.263 13.8685 404.984Z" fill="#E0E0E0"/>
<path d="M16.1638 382.906C16.0545 383.028 15.1437 382.445 14.1357 381.582C13.1278 380.72 12.387 379.931 12.4963 379.797C12.6056 379.664 13.5164 380.259 14.5365 381.109C15.5566 381.959 16.2731 382.785 16.1638 382.906Z" fill="#E0E0E0"/>
<path d="M20.758 374.983C20.8198 373.745 21.4041 373.846 21.3736 375.085C21.3493 376.069 21.3736 376.895 21.1671 376.919C20.9607 376.943 20.7178 376.13 20.7542 375.073C20.7552 375.043 20.7565 375.013 20.758 374.983Z" fill="#E0E0E0"/>
<path d="M31.7082 377.806C31.8539 377.903 31.441 378.729 30.7974 379.652C30.1538 380.575 29.583 381.23 29.3765 381.133C29.1701 381.036 29.6437 380.21 30.2873 379.299C30.931 378.389 31.5746 377.708 31.7082 377.806Z" fill="#E0E0E0"/>
<path d="M36.3108 390.12C37.6889 389.542 37.927 390.13 36.5415 390.69C35.4 391.152 34.4406 391.407 34.3799 391.249C34.3191 391.091 35.1814 390.593 36.3108 390.12Z" fill="#E0E0E0"/>
<path d="M24.5796 396.556C24.2605 397.787 23.6654 397.605 23.9845 396.374C24.2396 395.39 24.6767 394.637 24.8346 394.686C24.9925 394.735 24.8346 395.572 24.5796 396.556Z" fill="#E0E0E0"/>
<path d="M27.6764 411.165C27.0464 412.626 26.3398 412.31 27.1177 410.922C27.7592 409.435 28.4935 409.767 27.6764 411.165Z" fill="#E0E0E0"/>
<path d="M17.6538 416.509C19.0928 416.953 18.8001 417.685 17.4267 417.067C15.988 416.619 16.1928 415.878 17.5725 416.484C17.5998 416.493 17.6269 416.501 17.6538 416.509Z" fill="#E0E0E0"/>
<path d="M23.6081 430.001C23.7053 430.134 22.9888 430.814 22.0051 431.519C21.0214 432.223 20.1471 432.733 20.0378 432.539C19.9285 432.345 20.6571 431.713 21.6408 431.021C22.6245 430.329 23.511 429.855 23.6081 430.001Z" fill="#E0E0E0"/>
<path d="M24.5094 442.6C25.9119 442.255 26.0312 442.87 24.6282 443.214C23.4866 443.493 22.5394 443.578 22.503 443.408C22.4665 443.238 23.3531 442.886 24.4825 442.606C24.4914 442.604 24.5004 442.602 24.5094 442.6Z" fill="#E0E0E0"/>
<path d="M42.9293 412.052C43.0143 412.198 42.2492 412.805 41.1441 413.266C40.039 413.728 39.0675 413.728 39.0432 413.558C39.0189 413.388 39.8811 413.084 40.9255 412.683C41.9699 412.283 42.8321 411.858 42.9293 412.052Z" fill="#E0E0E0"/>
<path d="M43.5228 430.024C44.7987 430.635 44.5158 431.217 43.2329 430.62C42.1885 430.134 41.4113 429.6 41.4842 429.406C41.557 429.211 42.4557 429.515 43.5001 430.013C43.5077 430.017 43.5152 430.02 43.5228 430.024Z" fill="#E0E0E0"/>
<path d="M38.1446 448.763C37.9746 448.763 37.7317 447.865 37.3188 446.784C36.9059 445.703 36.4565 444.865 36.6023 444.756C36.748 444.647 37.4402 445.399 37.8895 446.565C38.3389 447.731 38.3146 448.751 38.1446 448.763Z" fill="#E0E0E0"/>
<path d="M35.2664 432.223C35.1693 432.357 34.4649 432.017 33.6998 431.47C32.9348 430.924 32.3883 430.365 32.4854 430.256C32.5826 430.146 33.2869 430.462 34.052 431.009C34.8171 431.555 35.3636 432.077 35.2664 432.223Z" fill="#E0E0E0"/>
<path d="M60.611 406.296C60.7203 406.429 60.0281 407.109 59.093 407.801C58.1579 408.494 57.2957 408.955 57.1986 408.822C57.1014 408.688 57.7815 408.008 58.7166 407.304C59.6517 406.599 60.5139 406.162 60.611 406.296Z" fill="#E0E0E0"/>
<path d="M64.4365 416.739C64.4365 416.91 63.3799 417.128 62.0077 416.982C60.6354 416.837 59.6881 416.399 59.7367 416.242C59.7853 416.084 60.8175 416.242 62.0684 416.375C63.3192 416.509 64.4243 416.569 64.4365 416.739Z" fill="#E0E0E0"/>
<path d="M45.7346 419.071C47.2691 418.965 47.3618 419.577 45.8267 419.675C45.8082 419.676 45.7896 419.677 45.771 419.678C45.7586 419.681 45.7462 419.683 45.7337 419.685C44.3427 419.94 44.3238 419.169 45.7346 419.071Z" fill="#E0E0E0"/>
<path d="M49.4263 409.21C49.4263 409.368 48.4062 409.392 47.3133 408.882C46.2203 408.372 45.5767 407.607 45.6981 407.498C45.8195 407.389 46.5725 407.874 47.5683 408.324C48.5641 408.773 49.4506 409.028 49.4263 409.21Z" fill="#E0E0E0"/>
<path d="M63.8778 426.358C65.3168 427.272 64.9932 427.775 63.5499 426.868C62.372 426.127 61.4855 425.41 61.5947 425.277C61.704 425.143 62.712 425.617 63.8778 426.358Z" fill="#E0E0E0"/>
<path d="M105.872 472.772C105.872 472.942 86.1136 473.076 61.7283 473.076C37.343 473.076 17.5847 472.942 17.5847 472.772C17.5847 472.602 37.343 472.456 61.7283 472.456C86.1136 472.456 105.872 472.651 105.872 472.772Z" fill="#EBEBEB"/>
<path d="M57.1378 419.423C57.0042 419.508 56.397 418.816 55.802 417.857C55.2069 416.897 54.8426 416.072 54.9883 415.974C55.1341 415.877 55.7291 416.582 56.3242 417.541C56.9192 418.5 57.2836 419.338 57.1378 419.423Z" fill="#E0E0E0"/>
<path d="M58.2186 429.758C57.7952 431.151 57.0171 430.882 57.6357 429.564C58.1048 428.184 58.834 428.437 58.2186 429.758Z" fill="#E0E0E0"/>
<path d="M52.1952 455.588C52.0737 455.479 52.5959 454.665 53.4096 453.779C54.2232 452.892 54.9154 452.249 55.049 452.358C55.1826 452.467 54.6483 453.281 53.8346 454.18C53.021 455.078 52.3288 455.698 52.1952 455.588Z" fill="#E0E0E0"/>
<path d="M48.4792 435.806C49.7443 436.004 49.635 436.623 48.3699 436.425C47.3619 436.267 46.5604 435.976 46.5968 435.806C46.6333 435.636 47.4712 435.648 48.4792 435.806Z" fill="#E0E0E0"/>
<path d="M462.938 88.5789L462.637 32.9599C462.616 29.0967 459.467 25.982 455.604 26.0029C451.741 26.0238 448.626 29.1724 448.647 33.0356L448.948 88.6546C448.969 92.5177 452.118 95.6325 455.981 95.6116C459.844 95.5907 462.959 92.442 462.938 88.5789Z" fill="#E0E0E0"/>
<path d="M363.762 46.4715L363.75 44.2613C363.696 34.2579 355.543 26.1925 345.539 26.2467C335.536 26.3008 327.471 34.454 327.525 44.4573L327.537 46.6675C327.591 56.6708 335.744 64.7362 345.747 64.6821C355.75 64.6279 363.816 56.4748 363.762 46.4715Z" fill="#EBEBEB"/>
<path d="M400.207 44.2678L400.184 42.0576C400.084 32.0541 391.894 24.0258 381.89 24.1259C371.887 24.2259 363.859 32.4164 363.959 42.4199L363.981 44.6301C364.081 54.6336 372.271 62.6619 382.275 62.5618C392.278 62.4618 400.307 54.2713 400.207 44.2678Z" fill="#F5F5F5"/>
<path d="M354.998 64.0238L320.497 64.2105C311.849 64.2573 304.875 71.3062 304.922 79.9548C304.969 88.6033 312.018 95.5764 320.667 95.5296L355.167 95.3429C363.816 95.2961 370.789 88.2472 370.742 79.5986C370.695 70.9501 363.646 63.977 354.998 64.0238Z" fill="#EBEBEB"/>
<path d="M420.5 63.6694L385.999 63.8561C377.351 63.9029 370.378 70.9518 370.424 79.6003C370.471 88.2489 377.52 95.2219 386.169 95.1751L420.669 94.9885C429.318 94.9417 436.291 87.8927 436.244 79.2442C436.197 70.5957 429.149 63.6226 420.5 63.6694Z" fill="#F5F5F5"/>
<path d="M304.679 72.9087C304.778 73.0292 304.955 73.0269 305.112 73.0287C348.662 73.5091 392.381 73.0269 435.932 72.3743C436.112 72.3716 436.316 72.3754 436.432 72.2372C436.491 72.1672 436.523 72.0789 436.523 71.9877C436.523 71.8965 436.491 71.8082 436.432 71.7383C436.316 71.6001 436.112 71.6047 435.932 71.6038C392.381 71.375 348.662 71.4006 305.111 72.353C304.955 72.3564 304.778 72.355 304.679 72.4754C304.628 72.5364 304.601 72.613 304.601 72.6921C304.601 72.7712 304.628 72.8478 304.679 72.9087Z" fill="#E0E0E0"/>
<path d="M529.651 95.6262H285.871C282.773 95.6262 280.261 98.1381 280.261 101.237C280.261 104.335 282.773 106.847 285.871 106.847H529.651C532.75 106.847 535.262 104.335 535.262 101.237C535.262 98.1381 532.75 95.6262 529.651 95.6262Z" fill="#E0E0E0"/>
<path d="M332.359 134.123V106.191C332.359 103.334 330.042 101.018 327.185 101.018C324.328 101.018 322.012 103.334 322.012 106.191V134.123C322.012 136.98 324.328 139.296 327.185 139.296C330.042 139.296 332.359 136.98 332.359 134.123Z" fill="#E0E0E0"/>
<path d="M486.892 134.123V106.191C486.892 103.334 484.576 101.018 481.719 101.018C478.861 101.018 476.545 103.334 476.545 106.191V134.123C476.545 136.98 478.861 139.296 481.719 139.296C484.576 139.296 486.892 136.98 486.892 134.123Z" fill="#E0E0E0"/>
<path d="M476.734 88.7475L476.292 6.9948C476.271 3.13164 473.122 0.0168744 469.259 0.0377763C465.396 0.0586782 462.281 3.20732 462.302 7.07049L462.744 88.8231C462.765 92.6863 465.914 95.8011 469.777 95.7802C473.64 95.7593 476.755 92.6106 476.734 88.7475Z" fill="#EBEBEB"/>
<path d="M498.473 84.537L498.171 28.6873C498.139 22.6846 493.246 17.8448 487.244 17.8773C481.241 17.9098 476.401 22.8022 476.434 28.8049L476.736 84.6546C476.768 90.6573 481.661 95.497 487.663 95.4646C493.666 95.4321 498.506 90.5396 498.473 84.537Z" fill="#F5F5F5"/>
<path d="M497.967 32.805C497.967 33.0114 493.11 33.1815 487.098 33.1815C481.087 33.1815 476.169 33.0114 476.169 32.805C476.169 32.5985 481.026 32.4285 487.098 32.4285C493.17 32.4285 497.967 32.5864 497.967 32.805Z" fill="#E0E0E0"/>
<path d="M497.967 29.5139C497.967 29.7204 493.11 29.8904 487.098 29.8904C481.087 29.8904 476.169 29.7204 476.169 29.5139C476.169 29.3075 481.026 29.1375 487.098 29.1375C493.17 29.1375 497.967 29.3318 497.967 29.5139Z" fill="#E0E0E0"/>
<path d="M497.967 83.7615C497.967 83.9679 493.11 84.1379 487.098 84.1379C481.087 84.1379 476.169 83.9679 476.169 83.7615C476.169 83.555 481.026 83.385 487.098 83.385C493.17 83.385 497.967 83.555 497.967 83.7615Z" fill="#E0E0E0"/>
<path d="M497.967 80.5189C497.967 80.7254 493.11 80.8954 487.098 80.8954C481.087 80.8954 476.169 80.7254 476.169 80.5189C476.169 80.3125 481.026 80.1425 487.098 80.1425C493.17 80.1425 497.967 80.3003 497.967 80.5189Z" fill="#E0E0E0"/>
<path d="M487.451 73.3904C487.244 73.3904 487.074 65.5697 487.074 55.9151C487.074 46.2606 487.244 38.4277 487.451 38.4277C487.657 38.4277 487.827 46.2606 487.827 55.9151C487.827 65.5697 487.657 73.3904 487.451 73.3904Z" fill="#E0E0E0"/>
<path d="M521.855 83.64V48.7379C521.855 42.2053 516.559 36.9096 510.026 36.9096C503.494 36.9096 498.198 42.2053 498.198 48.7379V83.6399C498.198 90.1726 503.494 95.4683 510.026 95.4683C516.559 95.4683 521.855 90.1726 521.855 83.64Z" fill="#EBEBEB"/>
<path d="M470.303 83.1482V28.6821C470.303 27.9946 469.746 27.4373 469.058 27.4373C468.371 27.4373 467.813 27.9946 467.813 28.6821V83.1482C467.813 83.8357 468.371 84.393 469.058 84.393C469.746 84.393 470.303 83.8357 470.303 83.1482Z" fill="#E0E0E0"/>
<path d="M133.706 193.92C133.585 193.92 133.488 162.989 133.488 124.845C133.488 86.7003 133.585 55.7693 133.706 55.7693C133.828 55.7693 133.925 86.6881 133.925 124.845C133.925 163.001 133.828 193.92 133.706 193.92Z" fill="#E0E0E0"/>
<path d="M125.23 99.4394C125.971 99.3971 125.971 99.9189 125.23 99.8766C124.488 99.9193 124.488 99.3966 125.23 99.4394Z" fill="#E0E0E0"/>
<path d="M125.23 139.466C125.971 139.424 125.971 139.946 125.23 139.903C124.488 139.946 124.488 139.423 125.23 139.466Z" fill="#E0E0E0"/>
<path d="M159.318 67.1605C159.318 67.2819 154.922 67.3791 149.506 67.3791C144.089 67.3791 139.693 67.2819 139.693 67.1605C139.693 67.039 144.089 66.9419 149.506 66.9419C154.922 66.9419 159.318 67.039 159.318 67.1605Z" fill="#E0E0E0"/>
<path d="M159.318 179.615C159.318 179.687 154.922 179.736 149.506 179.736C144.089 179.736 139.693 179.736 139.693 179.615C139.693 179.493 144.089 179.505 149.506 179.505C154.922 179.505 159.318 179.554 159.318 179.615Z" fill="#E0E0E0"/>
<path d="M186.642 83.64C186.642 83.7614 178.433 83.8586 168.292 83.8586C158.152 83.8586 149.931 83.7614 149.931 83.64C149.931 83.5185 158.152 83.4214 168.292 83.4214C178.433 83.4214 186.642 83.5185 186.642 83.64Z" fill="#E0E0E0"/>
<path d="M229.073 83.64C229.073 83.7614 220.852 83.8586 210.724 83.8586C200.596 83.8586 192.362 83.7614 192.362 83.64C192.362 83.5185 200.584 83.4214 210.724 83.4214C220.864 83.4214 229.073 83.5185 229.073 83.64Z" fill="#E0E0E0"/>
<path d="M212.873 91.6551C212.873 91.7765 200.729 91.8736 185.816 91.8736C170.903 91.8736 158.771 91.7765 158.771 91.6551C158.771 91.5336 170.916 91.4365 185.816 91.4365C200.717 91.4365 212.873 91.5336 212.873 91.6551Z" fill="#E0E0E0"/>
<path d="M212.873 99.658C212.873 99.7794 200.729 99.8766 185.816 99.8766C170.903 99.8766 158.771 99.7794 158.771 99.658C158.771 99.5365 170.916 99.4394 185.816 99.4394C200.717 99.4394 212.873 99.5365 212.873 99.658Z" fill="#E0E0E0"/>
<path d="M250.119 123.679C250.119 123.8 237.975 123.898 223.062 123.898C208.149 123.898 196.005 123.8 196.005 123.679C196.005 123.558 208.149 123.46 223.062 123.46C237.975 123.46 250.119 123.558 250.119 123.679Z" fill="#E0E0E0"/>
<path d="M234.04 107.661C234.04 107.782 221.896 107.88 206.996 107.88C192.095 107.88 179.939 107.782 179.939 107.661C179.939 107.539 192.083 107.442 206.996 107.442C221.908 107.442 234.04 107.539 234.04 107.661Z" fill="#E0E0E0"/>
<path d="M159.318 75.6613C159.318 75.7828 154.922 75.8799 149.506 75.8799C144.089 75.8799 139.693 75.7828 139.693 75.6613C139.693 75.5399 144.089 75.4427 149.506 75.4427C154.922 75.4427 159.318 75.5156 159.318 75.6613Z" fill="#E0E0E0"/>
<path d="M159.318 171.721C159.318 171.842 154.922 171.939 149.506 171.939C144.089 171.939 139.693 171.842 139.693 171.721C139.693 171.599 144.089 171.502 149.506 171.502C154.922 171.502 159.318 171.599 159.318 171.721Z" fill="#E0E0E0"/>
<path d="M169.045 107.661C169.045 107.782 164.649 107.88 159.233 107.88C153.817 107.88 149.421 107.782 149.421 107.661C149.421 107.539 153.805 107.442 159.233 107.442C164.661 107.442 169.045 107.539 169.045 107.661Z" fill="#E0E0E0"/>
<path d="M186.642 139.648C186.642 139.758 178.433 139.867 168.292 139.867C158.152 139.867 149.931 139.758 149.931 139.648C149.931 139.539 158.152 139.43 168.292 139.43C178.433 139.43 186.642 139.527 186.642 139.648Z" fill="#E0E0E0"/>
<path d="M229.073 139.648C229.073 139.758 220.852 139.867 210.724 139.867C200.596 139.867 192.362 139.758 192.362 139.648C192.362 139.539 200.584 139.43 210.724 139.43C220.864 139.43 229.073 139.527 229.073 139.648Z" fill="#E0E0E0"/>
<path d="M212.873 147.651C212.873 147.773 200.729 147.87 185.816 147.87C170.903 147.87 158.771 147.773 158.771 147.651C158.771 147.53 170.916 147.433 185.816 147.433C200.717 147.433 212.873 147.53 212.873 147.651Z" fill="#E0E0E0"/>
<path d="M212.873 155.654C212.873 155.776 200.729 155.873 185.816 155.873C170.903 155.873 158.771 155.776 158.771 155.654C158.771 155.533 170.916 155.436 185.816 155.436C200.717 155.436 212.873 155.533 212.873 155.654Z" fill="#E0E0E0"/>
<path d="M234.04 163.657C234.04 163.779 221.896 163.876 206.996 163.876C192.095 163.876 179.939 163.779 179.939 163.657C179.939 163.536 192.083 163.439 206.996 163.439C221.908 163.439 234.04 163.548 234.04 163.657Z" fill="#E0E0E0"/>
<path d="M169.045 163.657C169.045 163.779 164.649 163.876 159.233 163.876C153.817 163.876 149.421 163.779 149.421 163.657C149.421 163.536 153.805 163.439 159.233 163.439C164.661 163.439 169.045 163.548 169.045 163.657Z" fill="#E0E0E0"/>
<path d="M125.23 187.86C125.948 187.823 125.948 188.326 125.23 188.285C124.51 188.327 124.51 187.823 125.23 187.86Z" fill="#E0E0E0"/>
<path d="M212.873 188.03C212.873 188.152 200.729 188.249 185.816 188.249C170.903 188.249 158.771 188.152 158.771 188.03C158.771 187.909 170.916 187.812 185.816 187.812C200.717 187.812 212.873 187.909 212.873 188.03Z" fill="#E0E0E0"/>
<path d="M45.7413 17.8313H39.0001C17.461 17.8313 6.10352e-05 35.2922 6.10352e-05 56.8313V63.5726C6.10352e-05 85.1117 17.461 102.573 39.0001 102.573H45.7413C67.2804 102.573 84.7413 85.1117 84.7413 63.5726V56.8313C84.7413 35.2922 67.2804 17.8313 45.7413 17.8313Z" fill="#F5F5F5"/>
<path d="M15.0586 97.3385C14.9979 97.3385 14.9493 80.8955 14.9493 60.6149C14.9493 40.3343 14.9493 23.8912 15.0586 23.8912C15.1679 23.8912 15.1801 40.3343 15.1801 60.6149C15.1801 80.8955 15.1194 97.3385 15.0586 97.3385Z" fill="#E0E0E0"/>
<path d="M10.5532 42.8481C10.9494 42.8272 10.9494 43.112 10.5532 43.091C10.1561 43.1124 10.1561 42.8267 10.5532 42.8481Z" fill="#E0E0E0"/>
<path d="M10.5532 59.874C10.9494 59.853 10.9494 60.1379 10.5532 60.1169C10.1561 60.1383 10.1561 59.8526 10.5532 59.874Z" fill="#E0E0E0"/>
<path d="M23.4866 29.8296C26.4034 29.8296 26.4034 30.0603 23.4866 30.0603C20.6085 30.0603 18.2646 30.0603 18.2646 29.951C18.2646 29.8417 20.5963 29.8296 23.4866 29.8296Z" fill="#E0E0E0"/>
<path d="M43.1965 38.7191C43.1965 38.7798 38.8368 38.8284 33.4812 38.8284C28.1257 38.8284 23.766 38.8284 23.766 38.7191C23.766 38.6098 28.1379 38.5977 33.4812 38.5977C38.8246 38.5977 43.1965 38.6462 43.1965 38.7191Z" fill="#E0E0E0"/>
<path d="M65.7722 38.7191C65.7722 38.7798 61.4004 38.8284 56.057 38.8284C50.7136 38.8284 46.3417 38.8284 46.3417 38.7191C46.3417 38.6098 50.7015 38.5977 56.057 38.5977C61.4125 38.5977 65.7722 38.6462 65.7722 38.7191Z" fill="#E0E0E0"/>
<path d="M42.7592 42.8724C50.7509 42.8724 50.7509 43.091 42.7592 43.091C34.817 43.091 28.3807 43.0303 28.3807 42.9695C28.3807 42.9088 34.7685 42.8724 42.7592 42.8724Z" fill="#E0E0E0"/>
<path d="M42.7592 47.1107C50.7465 47.1107 50.7465 47.3414 42.7592 47.3414C34.817 47.3414 28.3807 47.3414 28.3807 47.2321C28.3807 47.1228 34.817 47.1107 42.7592 47.1107Z" fill="#E0E0E0"/>
<path d="M76.9448 59.9955C76.9448 60.0562 70.5084 60.1169 62.5662 60.1169C54.624 60.1169 48.1269 60.0562 48.1269 59.9955C48.1269 59.9347 54.5754 59.874 62.5176 59.874C70.4598 59.874 76.9448 59.9347 76.9448 59.9955Z" fill="#E0E0E0"/>
<path d="M54.0047 51.3611C61.9896 51.3611 62.0018 51.604 54.0168 51.604C46.0746 51.604 39.6261 51.5432 39.6261 51.4825C39.6261 51.4218 46.0624 51.3611 54.0047 51.3611Z" fill="#E0E0E0"/>
<path d="M23.4866 34.3351C26.4078 34.3351 26.4078 34.578 23.4866 34.578C20.6085 34.578 18.2646 34.5172 18.2646 34.4565C18.2646 34.3958 20.5963 34.3351 23.4866 34.3351Z" fill="#E0E0E0"/>
<path d="M28.6964 85.5345C28.6964 85.5952 26.3647 85.6559 23.4866 85.6559C20.6085 85.6559 18.2646 85.6559 18.2646 85.5345C18.2646 85.413 20.5963 85.413 23.4866 85.413C26.3769 85.413 28.6964 85.4737 28.6964 85.5345Z" fill="#E0E0E0"/>
<path d="M28.6236 51.3611C31.5513 51.3611 31.5513 51.604 28.6236 51.604C25.7454 51.604 23.4138 51.604 23.4138 51.4825C23.4138 51.3611 25.7454 51.3611 28.6236 51.3611Z" fill="#E0E0E0"/>
<path d="M33.4812 68.3628C38.8862 68.3628 38.8862 68.5935 33.4812 68.5935C28.1257 68.5935 23.766 68.5935 23.766 68.4842C23.766 68.3749 28.1379 68.3628 33.4812 68.3628Z" fill="#E0E0E0"/>
<path d="M56.057 68.3628C61.4619 68.3628 61.4619 68.5935 56.057 68.5935C50.7136 68.5935 46.3417 68.5935 46.3417 68.4842C46.3417 68.3749 50.7015 68.3628 56.057 68.3628Z" fill="#E0E0E0"/>
<path d="M57.15 72.7346C57.15 72.8075 50.7015 72.8561 42.7592 72.8561C34.817 72.8561 28.3807 72.8561 28.3807 72.7346C28.3807 72.6132 34.817 72.6253 42.7592 72.6253C50.7015 72.6253 57.15 72.6739 57.15 72.7346Z" fill="#E0E0E0"/>
<path d="M57.15 76.9972C57.15 77.0579 50.7015 77.1065 42.7592 77.1065C34.817 77.1065 28.3807 77.1065 28.3807 76.9972C28.3807 76.8879 34.7685 76.8757 42.7592 76.8757C50.75 76.8757 57.15 76.9365 57.15 76.9972Z" fill="#E0E0E0"/>
<path d="M68.3954 81.2475C68.3954 81.3204 61.959 81.369 54.0168 81.369C46.0746 81.369 39.6261 81.3204 39.6261 81.2475C39.6261 81.1747 46.0624 81.1382 54.0047 81.1382C61.9469 81.1382 68.3954 81.1868 68.3954 81.2475Z" fill="#E0E0E0"/>
<path d="M33.8455 81.2476C33.8455 81.3204 31.5017 81.369 28.6236 81.369C25.7454 81.369 23.4138 81.369 23.4138 81.2476C23.4138 81.1261 25.7454 81.1383 28.6236 81.1383C31.5017 81.1383 33.8455 81.1868 33.8455 81.2476Z" fill="#E0E0E0"/>
<path d="M42.7592 94.0839C50.7465 94.0839 50.7465 94.3146 42.7592 94.3146C34.817 94.3146 28.3807 94.3146 28.3807 94.2053C28.3807 94.096 34.817 94.0839 42.7592 94.0839Z" fill="#E0E0E0"/>
<path d="M160.276 510.284C160.003 510.193 159.989 510.03 160.277 510.018C160.691 510.033 161.086 510.192 161.395 510.467C161.636 510.674 161.825 510.934 161.948 511.227C162.07 511.521 162.122 511.838 162.099 512.155C162.018 512.542 161.826 512.897 161.546 513.176C161.266 513.455 160.911 513.646 160.524 513.726C160.137 513.806 159.735 513.772 159.368 513.626C159.296 513.598 159.225 513.565 159.158 513.529C158.602 513.232 158.237 512.627 158.237 511.997C158.237 511.681 158.312 511.369 158.456 511.087C158.627 510.711 158.923 510.406 159.294 510.224C159.561 510.115 159.731 510.139 159.731 510.224C159.731 510.309 159.148 510.479 158.869 511.305C158.786 511.523 158.751 511.757 158.768 511.99C158.801 512.453 159.09 512.885 159.514 513.074C159.547 513.089 159.581 513.102 159.616 513.115C159.871 513.206 160.146 513.226 160.411 513.172C160.677 513.118 160.922 512.993 161.121 512.809C161.147 512.786 161.172 512.761 161.196 512.736C161.516 512.395 161.616 511.881 161.466 511.438C161.39 511.216 161.267 511.013 161.103 510.844C160.807 510.512 160.508 510.362 160.276 510.284Z" fill="#263238"/>
<path d="M166.713 510.283C166.439 510.193 166.426 510.03 166.714 510.018C167.127 510.035 167.521 510.193 167.831 510.467C168.071 510.674 168.259 510.935 168.379 511.228C168.499 511.522 168.549 511.839 168.523 512.155C168.447 512.546 168.258 512.905 167.978 513.188C167.699 513.471 167.342 513.664 166.952 513.745C166.563 513.825 166.158 513.789 165.79 513.64C165.421 513.491 165.104 513.236 164.88 512.908C164.736 512.626 164.661 512.314 164.661 511.997C164.661 511.681 164.736 511.369 164.88 511.087C165.052 510.707 165.353 510.401 165.73 510.224C165.997 510.115 166.167 510.139 166.167 510.224C166.167 510.309 165.584 510.479 165.293 511.305C165.213 511.524 165.181 511.758 165.2 511.991C165.237 512.454 165.526 512.885 165.951 513.074C165.984 513.089 166.018 513.102 166.052 513.115C166.307 513.206 166.582 513.226 166.848 513.172C167.113 513.118 167.359 512.993 167.558 512.809C167.584 512.785 167.609 512.76 167.633 512.735C167.952 512.395 168.049 511.881 167.899 511.439C167.823 511.217 167.701 511.014 167.539 510.844C167.247 510.51 166.946 510.36 166.713 510.283Z" fill="#263238"/>
</svg>
