<svg width="87" height="19" viewBox="0 0 87 19" fill="none" xmlns="http://www.w3.org/2000/svg">
<path d="M10.2465 5.432C10.2465 6.164 10.0785 6.836 9.74249 7.448C9.40649 8.048 8.89049 8.534 8.19449 8.906C7.49849 9.278 6.63449 9.464 5.60249 9.464H3.69449V14H0.616488V1.364H5.60249C6.61049 1.364 7.46249 1.538 8.15849 1.886C8.85449 2.234 9.37649 2.714 9.72449 3.326C10.0725 3.938 10.2465 4.64 10.2465 5.432ZM5.36849 7.016C5.95649 7.016 6.39449 6.878 6.68249 6.602C6.97049 6.326 7.11449 5.936 7.11449 5.432C7.11449 4.928 6.97049 4.538 6.68249 4.262C6.39449 3.986 5.95649 3.848 5.36849 3.848H3.69449V7.016H5.36849ZM11.2369 8.96C11.2369 7.928 11.4289 7.022 11.8129 6.242C12.2089 5.462 12.7429 4.862 13.4149 4.442C14.0869 4.022 14.8369 3.812 15.6649 3.812C16.3729 3.812 16.9909 3.956 17.5189 4.244C18.0589 4.532 18.4729 4.91 18.7609 5.378V3.956H21.8389V14H18.7609V12.578C18.4609 13.046 18.0409 13.424 17.5009 13.712C16.9729 14 16.3549 14.144 15.6469 14.144C14.8309 14.144 14.0869 13.934 13.4149 13.514C12.7429 13.082 12.2089 12.476 11.8129 11.696C11.4289 10.904 11.2369 9.992 11.2369 8.96ZM18.7609 8.978C18.7609 8.21 18.5449 7.604 18.1129 7.16C17.6929 6.716 17.1769 6.494 16.5649 6.494C15.9529 6.494 15.4309 6.716 14.9989 7.16C14.5789 7.592 14.3689 8.192 14.3689 8.96C14.3689 9.728 14.5789 10.34 14.9989 10.796C15.4309 11.24 15.9529 11.462 16.5649 11.462C17.1769 11.462 17.6929 11.24 18.1129 10.796C18.5449 10.352 18.7609 9.746 18.7609 8.978ZM34.3257 3.956L28.0257 18.77H24.7137L27.0177 13.658L22.9317 3.956H26.3697L28.6917 10.238L30.9957 3.956H34.3257ZM40.0108 14.126C39.0868 14.126 38.2588 13.976 37.5268 13.676C36.7948 13.376 36.2068 12.932 35.7628 12.344C35.3308 11.756 35.1028 11.048 35.0788 10.22H38.3548C38.4028 10.688 38.5648 11.048 38.8408 11.3C39.1168 11.54 39.4768 11.66 39.9208 11.66C40.3768 11.66 40.7368 11.558 41.0008 11.354C41.2648 11.138 41.3968 10.844 41.3968 10.472C41.3968 10.16 41.2888 9.902 41.0728 9.698C40.8688 9.494 40.6108 9.326 40.2988 9.194C39.9988 9.062 39.5668 8.912 39.0028 8.744C38.1868 8.492 37.5208 8.24 37.0048 7.988C36.4888 7.736 36.0448 7.364 35.6728 6.872C35.3008 6.38 35.1148 5.738 35.1148 4.946C35.1148 3.77 35.5408 2.852 36.3928 2.192C37.2448 1.52 38.3548 1.184 39.7228 1.184C41.1148 1.184 42.2368 1.52 43.0888 2.192C43.9408 2.852 44.3968 3.776 44.4568 4.964H41.1268C41.1028 4.556 40.9528 4.238 40.6768 4.01C40.4008 3.77 40.0468 3.65 39.6148 3.65C39.2428 3.65 38.9428 3.752 38.7148 3.956C38.4868 4.148 38.3728 4.43 38.3728 4.802C38.3728 5.21 38.5648 5.528 38.9488 5.756C39.3328 5.984 39.9328 6.23 40.7488 6.494C41.5648 6.77 42.2248 7.034 42.7288 7.286C43.2448 7.538 43.6888 7.904 44.0608 8.384C44.4328 8.864 44.6188 9.482 44.6188 10.238C44.6188 10.958 44.4328 11.612 44.0608 12.2C43.7008 12.788 43.1728 13.256 42.4768 13.604C41.7808 13.952 40.9588 14.126 40.0108 14.126ZM52.111 11.39V14H50.545C49.429 14 48.559 13.73 47.935 13.19C47.311 12.638 46.999 11.744 46.999 10.508V6.512H45.775V3.956H46.999V1.508H50.077V3.956H52.093V6.512H50.077V10.544C50.077 10.844 50.149 11.06 50.293 11.192C50.437 11.324 50.677 11.39 51.013 11.39H52.111ZM53.2135 8.96C53.2135 7.928 53.4055 7.022 53.7895 6.242C54.1855 5.462 54.7195 4.862 55.3915 4.442C56.0635 4.022 56.8135 3.812 57.6415 3.812C58.3495 3.812 58.9675 3.956 59.4955 4.244C60.0355 4.532 60.4495 4.91 60.7375 5.378V3.956H63.8155V14H60.7375V12.578C60.4375 13.046 60.0175 13.424 59.4775 13.712C58.9495 14 58.3315 14.144 57.6235 14.144C56.8075 14.144 56.0635 13.934 55.3915 13.514C54.7195 13.082 54.1855 12.476 53.7895 11.696C53.4055 10.904 53.2135 9.992 53.2135 8.96ZM60.7375 8.978C60.7375 8.21 60.5215 7.604 60.0895 7.16C59.6695 6.716 59.1535 6.494 58.5415 6.494C57.9295 6.494 57.4075 6.716 56.9755 7.16C56.5555 7.592 56.3455 8.192 56.3455 8.96C56.3455 9.728 56.5555 10.34 56.9755 10.796C57.4075 11.24 57.9295 11.462 58.5415 11.462C59.1535 11.462 59.6695 11.24 60.0895 10.796C60.5215 10.352 60.7375 9.746 60.7375 8.978ZM65.4303 8.978C65.4303 7.934 65.6403 7.022 66.0603 6.242C66.4923 5.462 67.0863 4.862 67.8423 4.442C68.6103 4.022 69.4863 3.812 70.4703 3.812C71.7303 3.812 72.7803 4.142 73.6203 4.802C74.4723 5.462 75.0303 6.392 75.2943 7.592H72.0183C71.7423 6.824 71.2083 6.44 70.4163 6.44C69.8523 6.44 69.4023 6.662 69.0663 7.106C68.7303 7.538 68.5623 8.162 68.5623 8.978C68.5623 9.794 68.7303 10.424 69.0663 10.868C69.4023 11.3 69.8523 11.516 70.4163 11.516C71.2083 11.516 71.7423 11.132 72.0183 10.364H75.2943C75.0303 11.54 74.4723 12.464 73.6203 13.136C72.7683 13.808 71.7183 14.144 70.4703 14.144C69.4863 14.144 68.6103 13.934 67.8423 13.514C67.0863 13.094 66.4923 12.494 66.0603 11.714C65.6403 10.934 65.4303 10.022 65.4303 8.978ZM83.0787 14L80.0187 9.788V14H76.9407V0.68H80.0187V8.042L83.0607 3.956H86.8587L82.6827 8.996L86.8947 14H83.0787Z" fill="black"/>
</svg>
