<svg width="26" height="21" viewBox="0 0 26 21" fill="none" xmlns="http://www.w3.org/2000/svg">
<path fill-rule="evenodd" clip-rule="evenodd" d="M12.868 12.8163H13L13.294 12.8173C15.547 12.8322 20.694 13.0597 20.694 16.5485C20.694 20.0143 15.726 20.2404 13.329 20.2551H12.441C10.189 20.2403 5.04102 20.013 5.04102 16.5286C5.04102 13.0584 10.189 12.8321 12.441 12.8173L12.736 12.8163C12.782 12.8163 12.826 12.8163 12.868 12.8163ZM12.868 14.5663C10.096 14.5663 6.79102 14.907 6.79102 16.5286C6.79102 18.1136 9.89901 18.4842 12.614 18.5052L12.868 18.5061C15.64 18.5061 18.944 18.1666 18.944 16.5485C18.944 14.9105 15.64 14.5663 12.868 14.5663ZM22.147 12.3429C24.974 12.7664 25.568 14.094 25.568 15.1335C25.568 15.7682 25.318 16.9267 23.65 17.5625C23.547 17.601 23.442 17.6197 23.338 17.6197C22.986 17.6197 22.653 17.405 22.52 17.0562C22.348 16.6047 22.575 16.0984 23.027 15.9269C23.818 15.6259 23.818 15.2934 23.818 15.1335C23.818 14.6225 23.168 14.2655 21.887 14.0742C21.41 14.0019 21.08 13.5574 21.151 13.0779C21.222 12.5995 21.665 12.281 22.147 12.3429ZM4.58398 13.0779C4.65498 13.5574 4.32502 14.0019 3.84802 14.0742C2.56702 14.2655 1.91699 14.6225 1.91699 15.1335C1.91699 15.2934 1.91698 15.6247 2.70898 15.9269C3.15998 16.0984 3.38803 16.6047 3.21503 17.0562C3.08203 17.405 2.74997 17.6197 2.39697 17.6197C2.29397 17.6197 2.189 17.601 2.086 17.5625C0.415999 16.9255 0.166992 15.767 0.166992 15.1335C0.166992 14.0952 0.760989 12.7664 3.58899 12.3429C4.06999 12.2822 4.51098 12.5995 4.58398 13.0779ZM12.868 0.666626C15.808 0.666626 18.198 3.05833 18.198 5.99713C18.198 8.93603 15.808 11.3276 12.868 11.3276H12.836C11.413 11.323 10.079 10.7653 9.08099 9.75733C8.07999 8.75053 7.53302 7.41353 7.53802 5.99363C7.53802 3.05833 9.92898 0.666626 12.868 0.666626ZM12.868 2.41663C10.894 2.41663 9.28802 4.02313 9.28802 5.99713C9.28502 6.95383 9.65102 7.84863 10.322 8.52413C10.993 9.19963 11.887 9.57413 12.839 9.57763L12.868 10.4526V9.57763C14.842 9.57763 16.448 7.97233 16.448 5.99713C16.448 4.02313 14.842 2.41663 12.868 2.41663ZM20.088 1.80943C22.139 2.14653 23.629 3.90123 23.629 5.98143C23.624 8.07553 22.06 9.87223 19.989 10.1627C19.948 10.1685 19.907 10.1709 19.868 10.1709C19.438 10.1709 19.064 9.85472 19.002 9.41722C18.936 8.93773 19.268 8.49553 19.748 8.42903C20.961 8.25873 21.877 7.20643 21.879 5.97903C21.879 4.76223 21.006 3.73323 19.804 3.53603C19.328 3.45793 19.004 3.00753 19.083 2.53043C19.162 2.05323 19.609 1.73353 20.088 1.80943ZM6.65302 2.53043C6.73102 3.00753 6.40801 3.45793 5.93201 3.53603C4.72901 3.73323 3.85602 4.76223 3.85602 5.98143C3.85902 7.20643 4.775 8.25993 5.987 8.42903C6.466 8.49553 6.79899 8.93773 6.73199 9.41722C6.66999 9.85472 6.296 10.1709 5.867 10.1709C5.827 10.1709 5.786 10.1685 5.745 10.1627C3.674 9.87223 2.11102 8.07553 2.10602 5.98373C2.10602 3.90123 3.59597 2.14653 5.64697 1.80943C6.13797 1.73243 6.57402 2.05553 6.65302 2.53043Z" fill="black" fill-opacity="0.6"/>
</svg>
