<svg width="25" height="24" viewBox="0 0 25 24" fill="none" xmlns="http://www.w3.org/2000/svg">
<path d="M12.0303 0.666687C18.6571 0.666687 24.0293 5.77524 24.0293 12.0769C24.0293 18.3786 18.6571 23.4872 12.0303 23.4872C5.4034 23.4872 0.03125 18.3786 0.03125 12.0769C0.03125 5.77524 5.4034 0.666687 12.0303 0.666687ZM12.0303 2.25882C6.32808 2.25882 1.70553 6.65455 1.70553 12.0769C1.70553 17.4993 6.32808 21.8951 12.0303 21.8951C17.7325 21.8951 22.355 17.4993 22.355 12.0769C22.355 6.65455 17.7325 2.25882 12.0303 2.25882ZM10.5513 7.56379L10.6762 7.57508C10.9018 7.60754 11.2069 7.70497 11.4775 7.80666C12.7076 8.26118 15.1158 9.79905 16.0361 10.7318L16.3044 11.0042L16.4001 11.1093C16.5957 11.3452 16.6983 11.6343 16.6983 11.9304C16.6983 12.2091 16.6064 12.4843 16.4302 12.7121C16.3829 12.7734 16.3272 12.832 16.2033 12.9578L15.8796 13.2782C14.9049 14.1837 12.7954 15.5265 11.5976 16.0057C11.265 16.1385 10.7867 16.2897 10.559 16.2945C10.0252 16.3106 9.52285 16.0304 9.27593 15.5768C9.2112 15.4573 9.13043 15.1739 9.06963 14.9079L9.00856 14.6088C8.89717 13.9576 8.83689 12.9694 8.83802 11.9312L8.83973 11.6021C8.85075 10.6236 8.91579 9.7319 9.02761 9.1521C9.07214 8.91618 9.17114 8.50995 9.22841 8.37836C9.35296 8.09409 9.57763 7.8645 9.85594 7.72282C10.071 7.61251 10.3149 7.55608 10.5513 7.56379ZM10.7176 9.23765L10.6862 9.38135L10.6454 9.60824C10.5606 10.1589 10.5114 11.0144 10.5123 11.9312L10.5141 12.2492C10.5241 13.0898 10.5771 13.8622 10.6606 14.3501L10.7187 14.618L10.949 14.5379C12.0089 14.1139 14.1125 12.7576 14.8249 12.0272L14.9212 11.9283L14.6669 11.6793C13.8127 10.9015 11.8103 9.63772 10.8666 9.28904L10.7176 9.23765Z" fill="#666666"/>
</svg>
