<svg width="17" height="18" viewBox="0 0 17 18" fill="none" xmlns="http://www.w3.org/2000/svg">
<path fill-rule="evenodd" clip-rule="evenodd" d="M8.10999 0C12.59 0 16.23 3.64 16.23 8.115C16.23 10.2263 15.42 12.1519 14.09 13.5971L16.7 16.2006C16.94 16.4448 16.95 16.8398 16.7 17.0839C16.58 17.2073 16.42 17.2681 16.26 17.2681C16.1 17.2681 15.9399 17.2073 15.8199 17.0856L13.1799 14.4525C11.7899 15.5649 10.03 16.2309 8.10999 16.2309C3.63999 16.2309 0 12.59 0 8.115C0 3.64 3.63999 0 8.10999 0ZM8.10999 1.25C4.32999 1.25 1.25 4.3292 1.25 8.115C1.25 11.9009 4.32999 14.9809 8.10999 14.9809C11.9 14.9809 14.98 11.9009 14.98 8.115C14.98 4.3292 11.9 1.25 8.10999 1.25Z" fill="#1C1C1C" fill-opacity="0.7"/>
</svg>
