<svg width="20" height="24" viewBox="0 0 20 24" fill="none" xmlns="http://www.w3.org/2000/svg">
<path d="M10.5796 0.512818C11.3073 0.512491 12.0041 0.833006 12.5113 1.40135C13.0185 1.96969 13.2929 2.73745 13.2708 3.45399L13.2795 3.62251C13.2973 3.78847 13.3469 3.94863 13.4273 4.09626C13.584 4.38736 13.8406 4.59861 14.1405 4.68342C14.4403 4.76823 14.7589 4.71964 15.0605 4.52739L15.2287 4.43281C16.491 3.78639 18.005 4.30009 18.7052 5.62379L19.3345 6.81326C19.3511 6.84462 19.3657 6.87702 19.3783 6.91026L19.4367 7.03768C19.9995 8.34617 19.5991 9.90262 18.5297 10.6934L18.2657 10.8741C18.1276 10.9789 18.0125 11.1159 17.926 11.2804C17.7697 11.5727 17.7268 11.9207 17.8068 12.2475C17.8868 12.5744 18.0831 12.8529 18.3809 13.0405L18.5522 13.1601C19.0698 13.5544 19.4437 14.1357 19.6068 14.8019C19.7909 15.5535 19.6922 16.354 19.3277 17.0354L18.6507 18.2638L18.5487 18.437C17.7532 19.6829 16.2089 20.0636 15.0303 19.3226L14.8906 19.2442C14.7449 19.1732 14.5877 19.1342 14.4446 19.1298C14.1332 19.1282 13.8342 19.2622 13.614 19.502C13.3938 19.7418 13.2708 20.0676 13.2716 20.4463L13.2633 20.6421C13.1493 22.1584 11.984 23.3333 10.5799 23.3333H9.31204C7.82504 23.3333 6.61959 22.0203 6.6211 20.4526L6.61239 20.2841C6.59468 20.1182 6.54507 19.958 6.46056 19.8027C6.30729 19.5109 6.05334 19.2978 5.75515 19.2109C5.45697 19.124 5.13927 19.1704 4.83175 19.3641L4.64903 19.4634C4.0712 19.7465 3.41942 19.7988 2.80868 19.6097C2.11962 19.3964 1.53701 18.8928 1.19703 18.2243L0.542919 16.994L0.455862 16.8117C-0.139804 15.4422 0.327109 13.7958 1.51213 13.0498L1.6202 12.9761C1.93678 12.7374 2.1266 12.3439 2.1266 11.9231C2.1266 11.4655 1.90248 11.0426 1.51042 10.7952L1.35134 10.684C0.207536 9.81761 -0.141939 8.13542 0.566631 6.79639L1.233 5.60368C1.97411 4.20262 3.61649 3.71929 4.87968 4.50836L5.01642 4.58776C5.15582 4.65745 5.30724 4.69444 5.45304 4.69614C6.09593 4.69621 6.6197 4.13389 6.62943 3.41308L6.63817 3.19172C6.69081 2.50638 6.96384 1.86231 7.41017 1.37381C7.91373 0.822663 8.59817 0.512818 9.31204 0.512818H10.5796ZM10.5799 2.16472H9.31204C9.00165 2.16472 8.70405 2.29944 8.48511 2.53908C8.29105 2.75147 8.17233 3.03152 8.1515 3.29305L8.13772 3.64094C8.03153 5.15779 6.868 6.3482 5.44509 6.348C5.0783 6.34385 4.7167 6.25551 4.34796 6.0699L4.15053 5.95649C3.58801 5.60539 2.87072 5.81648 2.53785 6.44529L1.87148 7.63801C1.56613 8.21524 1.71884 8.95031 2.19164 9.30927L2.45921 9.49383C3.19612 10.0366 3.64316 10.9452 3.64316 11.9231C3.64316 12.8867 3.20861 13.7876 2.45741 14.353L2.29751 14.4625C1.77116 14.7942 1.56804 15.5105 1.81267 16.0745L1.87044 16.1961L2.51625 17.4096C2.6679 17.7077 2.92234 17.9276 3.22328 18.0208C3.49 18.1033 3.77468 18.0805 3.99677 17.9726L4.10835 17.9131C4.7243 17.5216 5.4583 17.4143 6.1472 17.6151C6.8361 17.8159 7.42282 18.3082 7.77083 18.971C7.95805 19.3146 8.07651 19.6971 8.12237 20.1367L8.14305 20.5402C8.2069 21.1819 8.70591 21.6814 9.31204 21.6814H10.5799C11.1929 21.6814 11.7021 21.168 11.75 20.5391L11.7558 20.4147C11.7523 19.6346 12.0353 18.8855 12.5416 18.3339C13.048 17.7824 13.7358 17.4742 14.4685 17.4782C14.828 17.4887 15.1819 17.5765 15.5435 17.7538L15.8678 17.9342C16.3768 18.1775 16.9805 18 17.2865 17.5218L17.3609 17.3951L18.0223 16.1946C18.1786 15.9024 18.2215 15.5543 18.1415 15.2275C18.0706 14.9379 17.908 14.6851 17.7109 14.5339L17.4314 14.3415C16.8971 13.9481 16.5087 13.3565 16.3414 12.6732C16.1574 11.9215 16.2561 11.121 16.6128 10.4541C16.8081 10.0828 17.0764 9.76349 17.4263 9.49876L17.5913 9.38559C18.1168 9.05077 18.3198 8.33459 18.0769 7.76841L18.0043 7.61603L17.9913 7.58405L17.3911 6.44853C17.1073 5.91187 16.5166 5.67999 16.0153 5.8632L15.9014 5.9129L15.7956 5.97166C15.1816 6.3656 14.449 6.47737 13.7593 6.28231C13.0696 6.08725 12.4795 5.60139 12.1211 4.93562C11.9339 4.59203 11.8154 4.20956 11.7696 3.76992L11.7561 3.48232C11.7652 3.1363 11.6454 2.80099 11.4238 2.55278C11.2023 2.30456 10.898 2.16472 10.5799 2.16472ZM9.95059 8.194C11.8414 8.194 13.3741 9.86356 13.3741 11.9231C13.3741 13.9826 11.8414 15.6522 9.95059 15.6522C8.05982 15.6522 6.52705 13.9826 6.52705 11.9231C6.52705 9.86356 8.05982 8.194 9.95059 8.194ZM9.95059 9.84591C8.8974 9.84591 8.04361 10.7759 8.04361 11.9231C8.04361 13.0703 8.8974 14.0002 9.95059 14.0002C11.0038 14.0002 11.8576 13.0703 11.8576 11.9231C11.8576 10.7759 11.0038 9.84591 9.95059 9.84591Z" fill="#666666"/>
</svg>
