<svg width="18" height="17" viewBox="0 0 18 17" fill="none" xmlns="http://www.w3.org/2000/svg">
<path d="M8.9915 0.583313C4.3915 0.583313 0.666504 4.12998 0.666504 8.49998C0.666504 12.87 4.3915 16.4166 8.9915 16.4166C13.5998 16.4166 17.3332 12.87 17.3332 8.49998C17.3332 4.12998 13.5998 0.583313 8.9915 0.583313ZM8.99984 14.8333C5.3165 14.8333 2.33317 11.9991 2.33317 8.49998C2.33317 5.00081 5.3165 2.16665 8.99984 2.16665C12.6832 2.16665 15.6665 5.00081 15.6665 8.49998C15.6665 11.9991 12.6832 14.8333 8.99984 14.8333ZM11.9165 7.70831C12.6082 7.70831 13.1665 7.1779 13.1665 6.52081C13.1665 5.86373 12.6082 5.33331 11.9165 5.33331C11.2248 5.33331 10.6665 5.86373 10.6665 6.52081C10.6665 7.1779 11.2248 7.70831 11.9165 7.70831ZM6.08317 7.70831C6.77484 7.70831 7.33317 7.1779 7.33317 6.52081C7.33317 5.86373 6.77484 5.33331 6.08317 5.33331C5.3915 5.33331 4.83317 5.86373 4.83317 6.52081C4.83317 7.1779 5.3915 7.70831 6.08317 7.70831ZM8.99984 12.8541C10.9415 12.8541 12.5915 11.6983 13.2582 10.0833H4.7415C5.40817 11.6983 7.05817 12.8541 8.99984 12.8541Z" fill="black"/>
</svg>
