<svg width="20" height="25" viewBox="0 0 20 25" fill="none" xmlns="http://www.w3.org/2000/svg">
<path d="M14.0837 0.142883C17.4231 0.142883 19.4199 2.47431 19.4512 6.3746V18.1034C19.4512 22.0583 17.4493 24.4286 14.0837 24.4286H6.0121C5.58162 24.4286 5.17307 24.3897 4.78856 24.3132L4.56078 24.2635C2.08339 23.6648 0.643555 21.4597 0.643555 18.1034V6.4681C0.643555 6.06253 0.664452 5.67395 0.706247 5.30238C1.07091 2.04203 2.9987 0.142883 6.0121 0.142883H14.0837ZM14.0743 1.9121H6.0121C3.4459 1.9121 2.14504 3.44574 2.14504 6.4681V18.1034C2.14504 21.1257 3.4459 22.6594 6.0121 22.6594H14.0743C16.6395 22.6594 17.932 21.1257 17.932 18.1034V6.4681C17.932 3.44574 16.6395 1.9121 14.0743 1.9121ZM13.8016 16.5479C14.2133 16.5479 14.5466 16.9413 14.5466 17.427C14.5466 17.9127 14.2133 18.3062 13.8016 18.3062H6.26705C5.85537 18.3062 5.52101 17.9127 5.52101 17.427C5.52101 16.9413 5.85537 16.5479 6.26705 16.5479H13.8016ZM13.8016 11.4005C14.089 11.3641 14.37 11.5244 14.5236 11.8122C14.6772 12.1024 14.6772 12.4691 14.5236 12.7593C14.37 13.0471 14.089 13.2074 13.8016 13.171H6.26705C5.88463 13.12 5.5952 12.7399 5.5952 12.2857C5.5952 11.8316 5.88463 11.4503 6.26705 11.4005H13.8016ZM9.14254 6.26531C9.52496 6.3151 9.81439 6.69638 9.81439 7.15053C9.81439 7.60345 9.52496 7.98474 9.14254 8.03453H6.27646C5.89299 7.98474 5.60356 7.60345 5.60356 7.15053C5.60356 6.69638 5.89299 6.3151 6.27646 6.26531H9.14254Z" fill="#666666"/>
</svg>
