<svg width="20" height="25" viewBox="0 0 20 25" fill="none" xmlns="http://www.w3.org/2000/svg">
<path d="M14.1233 0.142883C14.4895 0.142883 14.7922 0.461595 14.8401 0.875103L14.8467 0.990059L14.8467 1.94763C17.8174 2.18435 19.6364 4.41581 19.627 8.01848V18.3261C19.627 22.1448 17.5846 24.4286 14.302 24.4286H6.14427C2.86555 24.4286 0.819336 22.1059 0.819336 18.2407V8.01848C0.819336 4.41711 2.64422 2.18503 5.60845 1.94773L5.60853 0.990059C5.60853 0.522177 5.9324 0.142883 6.3319 0.142883C6.69812 0.142883 7.00077 0.461595 7.04867 0.875103L7.05527 0.990059L7.05513 1.92667H13.3996L13.3999 0.990059C13.3999 0.522177 13.7238 0.142883 14.1233 0.142883ZM18.1799 10.2008H2.26544L2.26608 18.2407C2.26608 21.064 3.56647 22.6312 5.90678 22.7293L6.14427 22.7342H14.302C16.8002 22.7342 18.1803 21.1911 18.1803 18.3261L18.1799 10.2008ZM14.5164 17.308C14.9159 17.308 15.2398 17.6873 15.2398 18.1552C15.2398 18.5841 14.9677 18.9386 14.6146 18.9947L14.5164 19.0024C14.108 19.0024 13.7841 18.6231 13.7841 18.1552C13.7841 17.7263 14.0563 17.3719 14.4093 17.3158L14.5164 17.308ZM10.2365 17.308C10.636 17.308 10.9599 17.6873 10.9599 18.1552C10.9599 18.5841 10.6878 18.9386 10.3347 18.9947L10.2365 19.0024C9.82809 19.0024 9.50423 18.6231 9.50423 18.1552C9.50423 17.7263 9.77636 17.3719 10.1294 17.3158L10.2365 17.308ZM5.9477 17.308C6.3472 17.308 6.67107 17.6873 6.67107 18.1552C6.67107 18.5841 6.39893 18.9386 6.04585 18.9947L5.93876 19.0024C5.53926 19.0024 5.21539 18.6231 5.21539 18.1552C5.21539 17.7263 5.48753 17.3719 5.8406 17.3158L5.9477 17.308ZM14.5164 12.918C14.9159 12.918 15.2398 13.2972 15.2398 13.7651C15.2398 14.194 14.9677 14.5485 14.6146 14.6046L14.5164 14.6123C14.108 14.6123 13.7841 14.233 13.7841 13.7651C13.7841 13.3362 14.0563 12.9818 14.4093 12.9257L14.5164 12.918ZM10.2365 12.918C10.636 12.918 10.9599 13.2972 10.9599 13.7651C10.9599 14.194 10.6878 14.5485 10.3347 14.6046L10.2365 14.6123C9.82809 14.6123 9.50423 14.233 9.50423 13.7651C9.50423 13.3362 9.77636 12.9818 10.1294 12.9257L10.2365 12.918ZM5.9477 12.918C6.3472 12.918 6.67107 13.2972 6.67107 13.7651C6.67107 14.194 6.39893 14.5485 6.04585 14.6046L5.93876 14.6123C5.53926 14.6123 5.21539 14.233 5.21539 13.7651C5.21539 13.3362 5.48753 12.9818 5.8406 12.9257L5.9477 12.918ZM13.3996 3.6206H7.05513L7.05527 4.70722C7.05527 5.1751 6.73141 5.5544 6.3319 5.5544C5.96569 5.5544 5.66304 5.23568 5.61514 4.82218L5.60853 4.70722L5.60751 3.64635C3.45126 3.85662 2.26608 5.37233 2.26608 8.01848L2.26544 8.50567H18.1799L18.1803 8.01588C18.1872 5.36765 17.008 3.85508 14.8467 3.64609L14.8467 4.70722C14.8467 5.1751 14.5228 5.5544 14.1233 5.5544C13.7571 5.5544 13.4544 5.23568 13.4065 4.82218L13.3999 4.70722L13.3996 3.6206Z" fill="#666666"/>
</svg>
