<svg width="22" height="25" viewBox="0 0 22 25" fill="none" xmlns="http://www.w3.org/2000/svg">
<path d="M15.6581 0.142883C19.2141 0.142883 21.584 3.09222 21.584 7.32427V17.246C21.584 21.4783 19.2139 24.4286 15.6581 24.4286H6.60188C3.04769 24.4286 0.686523 21.4806 0.686523 17.246V7.32427C0.686523 3.09431 3.05458 0.142883 6.60188 0.142883H15.6581ZM15.6581 1.96897H6.60188C3.94721 1.96897 2.25697 4.0756 2.25697 7.32427V17.246C2.25697 20.5 3.94098 22.6025 6.60188 22.6025H15.6581C18.3218 22.6025 20.0135 20.4965 20.0135 17.246V7.32427C20.0135 4.07406 18.322 1.96897 15.6581 1.96897ZM16.4023 12.5086L16.5385 12.6605L18.712 15.2681C19.0138 15.6302 19.006 16.2083 18.6946 16.5592C18.4115 16.8783 17.9749 16.8998 17.6711 16.629L17.5843 16.539L15.4109 13.9315C15.0322 13.4774 14.4167 13.4732 14.0324 13.897L13.948 14.0024L11.6147 17.3022C10.7894 18.4712 9.3044 18.5965 8.3436 17.6168L8.21594 17.4764L7.28474 16.3716C7.04014 16.0764 6.65006 16.0485 6.37842 16.2866L6.29262 16.3759L4.69181 18.3395C4.39347 18.7055 3.89647 18.721 3.58173 18.374C3.29561 18.0587 3.25862 17.5524 3.47841 17.188L3.55205 17.0833L5.15253 15.12C5.99509 14.0852 7.38261 14.0301 8.28015 14.9531L8.41097 15.0989L9.33747 16.1982C9.60831 16.5194 10.0424 16.5276 10.3223 16.2386L10.4013 16.143L12.7348 12.8429C13.6619 11.5307 15.3314 11.3979 16.4023 12.5086ZM7.55409 5.77867C9.00122 5.77867 10.1757 7.14432 10.1757 8.82701C10.1757 10.5097 9.00122 11.8754 7.55409 11.8754C6.10703 11.8754 4.93354 10.5098 4.93354 8.82701C4.93354 7.14425 6.10703 5.77867 7.55409 5.77867ZM7.55409 7.60475C6.97464 7.60475 6.50399 8.15245 6.50399 8.82701C6.50399 9.50158 6.97464 10.0493 7.55409 10.0493C8.13389 10.0493 8.60525 9.50119 8.60525 8.82701C8.60525 8.15284 8.13389 7.60475 7.55409 7.60475Z" fill="#666666"/>
</svg>
