<svg width="23" height="25" viewBox="0 0 23 25" fill="none" xmlns="http://www.w3.org/2000/svg">
<path fill-rule="evenodd" clip-rule="evenodd" d="M10.4469 14.9216L14.63 22.126C14.813 22.4417 15.0989 22.4381 15.2145 22.4211C15.33 22.4041 15.608 22.3288 15.7086 21.9706L20.9395 3.21592C21.031 2.88442 20.8629 2.65856 20.7874 2.57842C20.7141 2.49827 20.5048 2.32706 20.2017 2.41813L2.52221 7.91399C2.18705 8.01842 2.11385 8.31713 2.09783 8.43977C2.08182 8.56485 2.07724 8.87449 2.3735 9.07242L9.2378 13.6296L15.3025 7.12349C15.6354 6.76649 16.1787 6.76285 16.5162 7.1162C16.8536 7.46956 16.8559 8.04756 16.523 8.40456L10.4469 14.9216ZM15.1252 24.2498C14.3291 24.2498 13.5993 23.8199 13.1692 23.0816L8.73451 15.4426L1.46414 10.6158C0.680592 10.0948 0.27109 9.16713 0.398058 8.19206C0.523883 7.21699 1.15415 6.44227 2.0395 6.16663L19.719 0.670775C20.5323 0.418204 21.4039 0.657418 22.0033 1.29127C22.6027 1.9312 22.8257 2.8662 22.5832 3.7332L17.3523 22.4866C17.0904 23.4301 16.3583 24.0968 15.4421 24.2267C15.3346 24.2413 15.2305 24.2498 15.1252 24.2498Z" fill="black" fill-opacity="0.64"/>
</svg>
