<svg width="22" height="19" viewBox="0 0 22 19" fill="none" xmlns="http://www.w3.org/2000/svg">
<path d="M11.4219 0.178345C13.9528 0.178345 15.7148 2.04103 15.9025 4.77361L18.6685 3.45945C19.8652 2.89195 21.171 3.85619 21.2661 5.32143L21.2716 5.49267V13.5543C21.2716 15.0567 20.0101 16.0963 18.8066 15.6449L18.6681 15.5861L15.9024 14.2718C15.7144 17.0026 13.9488 18.8674 11.4219 18.8674H4.87164C2.19143 18.8674 0.374512 16.7799 0.374512 13.782V5.26377C0.374512 2.26581 2.19143 0.178345 4.87164 0.178345H11.4219ZM11.4219 1.99977H4.87164C3.05304 1.99977 1.94182 3.27646 1.94182 5.26377V13.782C1.94182 15.7693 3.05304 17.046 4.87164 17.046H11.4219C13.2361 17.046 14.3518 15.766 14.3518 13.782L14.3516 12.9495C14.3512 12.9366 14.3512 12.9236 14.3513 12.9106L14.3518 5.26377C14.3518 3.27693 13.2399 1.99977 11.4219 1.99977ZM19.3319 5.12242L19.2611 5.14568L15.9191 6.73184V12.3127L19.2606 13.8999C19.4492 13.9893 19.6531 13.8566 19.6961 13.6394L19.7043 13.5543V5.49267C19.7043 5.25613 19.5211 5.08674 19.3319 5.12242Z" fill="#666666"/>
</svg>
